{
  "asset": {
    "generator": "glTF-Transform v4.5.1",
    "version": "2.0"
  },
  "accessors": [
    {
      "type": "SCALAR",
      "componentType": 5123,
      "count": 570,
      "normalized": false,
      "byteOffset": 0,
      "bufferView": 0
    },
    {
      "type": "VEC3",
      "componentType": 5120,
      "count": 380,
      "normalized": true,
      "byteOffset": 0,
      "bufferView": 1
    },
    {
      "type": "SCALAR",
      "componentType": 5123,
      "count": 252,
      "normalized": false,
      "byteOffset": 1140,
      "bufferView": 0
    },
    {
      "type": "VEC3",
      "componentType": 5120,
      "count": 98,
      "normalized": true,
      "byteOffset": 0,
      "bufferView": 2
    },
    {
      "type": "VEC2",
      "componentType": 5126,
      "count": 98,
      "normalized": false,
      "byteOffset": 0,
      "bufferView": 3
    },
    {
      "type": "VEC3",
      "componentType": 5122,
      "count": 380,
      "max": [
        31551,
        22938,
        20274
      ],
      "min": [
        -32767,
        -22090,
        -18974
      ],
      "normalized": true,
      "byteOffset": 0,
      "bufferView": 4
    },
    {
      "type": "VEC2",
      "componentType": 5123,
      "count": 380,
      "normalized": true,
      "byteOffset": 0,
      "bufferView": 5
    },
    {
      "type": "VEC3",
      "componentType": 5122,
      "count": 98,
      "max": [
        32767,
        23086,
        12821
      ],
      "min": [
        -25059,
        -23086,
        -20274
      ],
      "normalized": true,
      "byteOffset": 0,
      "bufferView": 6
    }
  ],
  "bufferViews": [
    {
      "buffer": 1,
      "byteOffset": 0,
      "byteLength": 1644,
      "target": 34963,
      "extensions": {
        "EXT_meshopt_compression": {
          "buffer": 0,
          "byteOffset": 0,
          "byteLength": 292,
          "mode": "TRIANGLES",
          "byteStride": 2,
          "count": 822
        }
      }
    },
    {
      "buffer": 1,
      "byteOffset": 1644,
      "byteLength": 1520,
      "target": 34962,
      "byteStride": 4,
      "extensions": {
        "EXT_meshopt_compression": {
          "buffer": 0,
          "byteOffset": 292,
          "byteLength": 824,
          "mode": "ATTRIBUTES",
          "filter": "OCTAHEDRAL",
          "byteStride": 4,
          "count": 380
        }
      }
    },
    {
      "buffer": 1,
      "byteOffset": 3164,
      "byteLength": 392,
      "target": 34962,
      "byteStride": 4,
      "extensions": {
        "EXT_meshopt_compression": {
          "buffer": 0,
          "byteOffset": 1116,
          "byteLength": 245,
          "mode": "ATTRIBUTES",
          "filter": "OCTAHEDRAL",
          "byteStride": 4,
          "count": 98
        }
      }
    },
    {
      "buffer": 1,
      "byteOffset": 3556,
      "byteLength": 784,
      "target": 34962,
      "byteStride": 8,
      "extensions": {
        "EXT_meshopt_compression": {
          "buffer": 0,
          "byteOffset": 1364,
          "byteLength": 727,
          "mode": "ATTRIBUTES",
          "byteStride": 8,
          "count": 98
        }
      }
    },
    {
      "buffer": 1,
      "byteOffset": 4340,
      "byteLength": 3040,
      "target": 34962,
      "byteStride": 8,
      "extensions": {
        "EXT_meshopt_compression": {
          "buffer": 0,
          "byteOffset": 2092,
          "byteLength": 2380,
          "mode": "ATTRIBUTES",
          "byteStride": 8,
          "count": 380
        }
      }
    },
    {
      "buffer": 1,
      "byteOffset": 7380,
      "byteLength": 1520,
      "target": 34962,
      "byteStride": 4,
      "extensions": {
        "EXT_meshopt_compression": {
          "buffer": 0,
          "byteOffset": 4472,
          "byteLength": 441,
          "mode": "ATTRIBUTES",
          "byteStride": 4,
          "count": 380
        }
      }
    },
    {
      "buffer": 1,
      "byteOffset": 8900,
      "byteLength": 784,
      "target": 34962,
      "byteStride": 8,
      "extensions": {
        "EXT_meshopt_compression": {
          "buffer": 0,
          "byteOffset": 4916,
          "byteLength": 653,
          "mode": "ATTRIBUTES",
          "byteStride": 8,
          "count": 98
        }
      }
    }
  ],
  "samplers": [
    {
      "wrapS": 10497,
      "wrapT": 10497
    }
  ],
  "textures": [
    {
      "source": 0,
      "sampler": 0
    },
    {
      "source": 1,
      "sampler": 0
    }
  ],
  "images": [
    {
      "mimeType": "image/webp",
      "uri": "Bush_Leaves.webp"
    },
    {
      "mimeType": "image/webp",
      "uri": "Flowers.webp"
    }
  ],
  "buffers": [
    {
      "uri": "Bush_Small_Flowers.bin",
      "byteLength": 5572
    },
    {
      "byteLength": 9684,
      "extensions": {
        "EXT_meshopt_compression": {
          "fallback": true
        }
      }
    }
  ],
  "materials": [
    {
      "name": "Bush_Leaves",
      "alphaMode": "MASK",
      "alphaCutoff": 0.45,
      "doubleSided": true,
      "pbrMetallicRoughness": {
        "baseColorTexture": {
          "index": 0
        }
      }
    },
    {
      "name": "Flowers",
      "alphaMode": "MASK",
      "alphaCutoff": 0.45,
      "doubleSided": true,
      "pbrMetallicRoughness": {
        "baseColorTexture": {
          "index": 1
        }
      }
    }
  ],
  "meshes": [
    {
      "name": "Plane.000",
      "primitives": [
        {
          "attributes": {
            "NORMAL": 1,
            "POSITION": 5,
            "TEXCOORD_0": 6
          },
          "mode": 4,
          "material": 0,
          "indices": 0
        },
        {
          "attributes": {
            "NORMAL": 3,
            "TEXCOORD_0": 4,
            "POSITION": 7
          },
          "mode": 4,
          "material": 1,
          "indices": 2
        }
      ]
    }
  ],
  "nodes": [
    {
      "name": "Bush_Small_Flowers",
      "translation": [
        -0.02260023223029059,
        0.12696255823361344,
        0.009488710346061871
      ],
      "rotation": [
        0.04079355459718235,
        -0.5334215188625312,
        0.8006436082907703,
        0.2697539273113026
      ],
      "scale": [
        0.9142470460490585,
        0.9142469336727743,
        0.9142467920508646
      ],
      "mesh": 0
    }
  ],
  "scenes": [
    {
      "name": "Scene",
      "nodes": [
        0
      ]
    }
  ],
  "scene": 0,
  "extensionsUsed": [
    "EXT_meshopt_compression",
    "KHR_mesh_quantization"
  ],
  "extensionsRequired": [
    "EXT_meshopt_compression",
    "KHR_mesh_quantization"
  ]
}