{
  "asset": {
    "generator": "glTF-Transform v4.5.1",
    "version": "2.0"
  },
  "accessors": [
    {
      "type": "SCALAR",
      "componentType": 5123,
      "count": 16032,
      "normalized": false,
      "byteOffset": 0,
      "bufferView": 0
    },
    {
      "type": "VEC3",
      "componentType": 5120,
      "count": 3246,
      "normalized": true,
      "byteOffset": 0,
      "bufferView": 1
    },
    {
      "type": "VEC2",
      "componentType": 5126,
      "count": 3246,
      "normalized": false,
      "byteOffset": 0,
      "bufferView": 2
    },
    {
      "type": "VEC3",
      "componentType": 5122,
      "count": 3246,
      "max": [
        18110,
        32767,
        7644
      ],
      "min": [
        -18110,
        -32767,
        -7644
      ],
      "normalized": true,
      "byteOffset": 0,
      "bufferView": 3
    }
  ],
  "bufferViews": [
    {
      "buffer": 1,
      "byteOffset": 0,
      "byteLength": 32064,
      "target": 34963,
      "extensions": {
        "EXT_meshopt_compression": {
          "buffer": 0,
          "byteOffset": 0,
          "byteLength": 6137,
          "mode": "TRIANGLES",
          "byteStride": 2,
          "count": 16032
        }
      }
    },
    {
      "buffer": 1,
      "byteOffset": 32064,
      "byteLength": 12984,
      "target": 34962,
      "byteStride": 4,
      "extensions": {
        "EXT_meshopt_compression": {
          "buffer": 0,
          "byteOffset": 6140,
          "byteLength": 6571,
          "mode": "ATTRIBUTES",
          "filter": "OCTAHEDRAL",
          "byteStride": 4,
          "count": 3246
        }
      }
    },
    {
      "buffer": 1,
      "byteOffset": 45048,
      "byteLength": 25968,
      "target": 34962,
      "byteStride": 8,
      "extensions": {
        "EXT_meshopt_compression": {
          "buffer": 0,
          "byteOffset": 12712,
          "byteLength": 19370,
          "mode": "ATTRIBUTES",
          "byteStride": 8,
          "count": 3246
        }
      }
    },
    {
      "buffer": 1,
      "byteOffset": 71016,
      "byteLength": 25968,
      "target": 34962,
      "byteStride": 8,
      "extensions": {
        "EXT_meshopt_compression": {
          "buffer": 0,
          "byteOffset": 32084,
          "byteLength": 14606,
          "mode": "ATTRIBUTES",
          "byteStride": 8,
          "count": 3246
        }
      }
    }
  ],
  "samplers": [
    {
      "wrapS": 10497,
      "wrapT": 10497
    }
  ],
  "textures": [
    {
      "source": 0,
      "sampler": 0
    }
  ],
  "images": [
    {
      "mimeType": "image/webp",
      "uri": "NormalTree_Bark.webp"
    }
  ],
  "buffers": [
    {
      "uri": "DeadTree_2.bin",
      "byteLength": 46692
    },
    {
      "byteLength": 96984,
      "extensions": {
        "EXT_meshopt_compression": {
          "fallback": true
        }
      }
    }
  ],
  "materials": [
    {
      "name": "NormalTree_Bark",
      "doubleSided": true,
      "pbrMetallicRoughness": {
        "baseColorTexture": {
          "index": 0
        }
      }
    }
  ],
  "meshes": [
    {
      "name": "Cylinder.004",
      "primitives": [
        {
          "attributes": {
            "NORMAL": 1,
            "TEXCOORD_0": 2,
            "POSITION": 3
          },
          "mode": 4,
          "material": 0,
          "indices": 0
        }
      ]
    }
  ],
  "nodes": [
    {
      "name": "DeadTree_2",
      "translation": [
        -0.07628768682479858,
        3.0878751892596483,
        -0.0862591564655304
      ],
      "scale": [
        3.0978853087872267,
        3.0978853087872267,
        3.0978853087872267
      ],
      "mesh": 0
    }
  ],
  "scenes": [
    {
      "name": "Scene",
      "nodes": [
        0
      ]
    }
  ],
  "scene": 0,
  "extensionsUsed": [
    "EXT_meshopt_compression",
    "KHR_mesh_quantization"
  ],
  "extensionsRequired": [
    "EXT_meshopt_compression",
    "KHR_mesh_quantization"
  ]
}