{
  "asset": {
    "generator": "glTF-Transform v4.5.1",
    "version": "2.0"
  },
  "accessors": [
    {
      "type": "SCALAR",
      "componentType": 5123,
      "count": 14376,
      "normalized": false,
      "byteOffset": 0,
      "bufferView": 0
    },
    {
      "type": "VEC3",
      "componentType": 5120,
      "count": 2905,
      "normalized": true,
      "byteOffset": 0,
      "bufferView": 1
    },
    {
      "type": "VEC2",
      "componentType": 5126,
      "count": 2905,
      "normalized": false,
      "byteOffset": 0,
      "bufferView": 2
    },
    {
      "type": "VEC3",
      "componentType": 5122,
      "count": 2905,
      "max": [
        16353,
        32767,
        6852
      ],
      "min": [
        -16353,
        -32767,
        -6852
      ],
      "normalized": true,
      "byteOffset": 0,
      "bufferView": 3
    }
  ],
  "bufferViews": [
    {
      "buffer": 1,
      "byteOffset": 0,
      "byteLength": 28752,
      "target": 34963,
      "extensions": {
        "EXT_meshopt_compression": {
          "buffer": 0,
          "byteOffset": 0,
          "byteLength": 5513,
          "mode": "TRIANGLES",
          "byteStride": 2,
          "count": 14376
        }
      }
    },
    {
      "buffer": 1,
      "byteOffset": 28752,
      "byteLength": 11620,
      "target": 34962,
      "byteStride": 4,
      "extensions": {
        "EXT_meshopt_compression": {
          "buffer": 0,
          "byteOffset": 5516,
          "byteLength": 5937,
          "mode": "ATTRIBUTES",
          "filter": "OCTAHEDRAL",
          "byteStride": 4,
          "count": 2905
        }
      }
    },
    {
      "buffer": 1,
      "byteOffset": 40372,
      "byteLength": 23240,
      "target": 34962,
      "byteStride": 8,
      "extensions": {
        "EXT_meshopt_compression": {
          "buffer": 0,
          "byteOffset": 11456,
          "byteLength": 17340,
          "mode": "ATTRIBUTES",
          "byteStride": 8,
          "count": 2905
        }
      }
    },
    {
      "buffer": 1,
      "byteOffset": 63612,
      "byteLength": 23240,
      "target": 34962,
      "byteStride": 8,
      "extensions": {
        "EXT_meshopt_compression": {
          "buffer": 0,
          "byteOffset": 28796,
          "byteLength": 12918,
          "mode": "ATTRIBUTES",
          "byteStride": 8,
          "count": 2905
        }
      }
    }
  ],
  "samplers": [
    {
      "wrapS": 10497,
      "wrapT": 10497
    }
  ],
  "textures": [
    {
      "source": 0,
      "sampler": 0
    }
  ],
  "images": [
    {
      "mimeType": "image/webp",
      "uri": "NormalTree_Bark.webp"
    }
  ],
  "buffers": [
    {
      "uri": "DeadTree_1.bin",
      "byteLength": 41716
    },
    {
      "byteLength": 86852,
      "extensions": {
        "EXT_meshopt_compression": {
          "fallback": true
        }
      }
    }
  ],
  "materials": [
    {
      "name": "NormalTree_Bark",
      "doubleSided": true,
      "pbrMetallicRoughness": {
        "baseColorTexture": {
          "index": 0
        }
      }
    }
  ],
  "meshes": [
    {
      "name": "Cylinder.001",
      "primitives": [
        {
          "attributes": {
            "NORMAL": 1,
            "TEXCOORD_0": 2,
            "POSITION": 3
          },
          "mode": 4,
          "material": 0,
          "indices": 0
        }
      ]
    }
  ],
  "nodes": [
    {
      "name": "DeadTree_1",
      "translation": [
        -0.10579407215118408,
        3.087945736479014,
        -0.028677433729171753
      ],
      "scale": [
        3.097814761567861,
        3.097814761567861,
        3.097814761567861
      ],
      "mesh": 0
    }
  ],
  "scenes": [
    {
      "name": "Scene",
      "nodes": [
        0
      ]
    }
  ],
  "scene": 0,
  "extensionsUsed": [
    "EXT_meshopt_compression",
    "KHR_mesh_quantization"
  ],
  "extensionsRequired": [
    "EXT_meshopt_compression",
    "KHR_mesh_quantization"
  ]
}