{
  "asset": {
    "generator": "glTF-Transform v4.5.1",
    "version": "2.0"
  },
  "accessors": [
    {
      "type": "SCALAR",
      "componentType": 5123,
      "count": 16032,
      "normalized": false,
      "byteOffset": 0,
      "bufferView": 0
    },
    {
      "type": "VEC3",
      "componentType": 5120,
      "count": 3246,
      "normalized": true,
      "byteOffset": 0,
      "bufferView": 1
    },
    {
      "type": "VEC2",
      "componentType": 5126,
      "count": 3246,
      "normalized": false,
      "byteOffset": 0,
      "bufferView": 2
    },
    {
      "type": "SCALAR",
      "componentType": 5123,
      "count": 8220,
      "normalized": false,
      "byteOffset": 32064,
      "bufferView": 0
    },
    {
      "type": "VEC3",
      "componentType": 5120,
      "count": 5480,
      "normalized": true,
      "byteOffset": 0,
      "bufferView": 3
    },
    {
      "type": "VEC3",
      "componentType": 5122,
      "count": 3246,
      "max": [
        17298,
        29171,
        5852
      ],
      "min": [
        -16934,
        -32767,
        -8601
      ],
      "normalized": true,
      "byteOffset": 0,
      "bufferView": 4
    },
    {
      "type": "VEC3",
      "componentType": 5122,
      "count": 5480,
      "max": [
        22766,
        32767,
        13925
      ],
      "min": [
        -22766,
        -12757,
        -13925
      ],
      "normalized": true,
      "byteOffset": 0,
      "bufferView": 5
    },
    {
      "type": "VEC2",
      "componentType": 5123,
      "count": 5480,
      "normalized": true,
      "byteOffset": 0,
      "bufferView": 6
    }
  ],
  "bufferViews": [
    {
      "buffer": 1,
      "byteOffset": 0,
      "byteLength": 48504,
      "target": 34963,
      "extensions": {
        "EXT_meshopt_compression": {
          "buffer": 0,
          "byteOffset": 0,
          "byteLength": 8878,
          "mode": "TRIANGLES",
          "byteStride": 2,
          "count": 24252
        }
      }
    },
    {
      "buffer": 1,
      "byteOffset": 48504,
      "byteLength": 12984,
      "target": 34962,
      "byteStride": 4,
      "extensions": {
        "EXT_meshopt_compression": {
          "buffer": 0,
          "byteOffset": 8880,
          "byteLength": 6571,
          "mode": "ATTRIBUTES",
          "filter": "OCTAHEDRAL",
          "byteStride": 4,
          "count": 3246
        }
      }
    },
    {
      "buffer": 1,
      "byteOffset": 61488,
      "byteLength": 25968,
      "target": 34962,
      "byteStride": 8,
      "extensions": {
        "EXT_meshopt_compression": {
          "buffer": 0,
          "byteOffset": 15452,
          "byteLength": 19366,
          "mode": "ATTRIBUTES",
          "byteStride": 8,
          "count": 3246
        }
      }
    },
    {
      "buffer": 1,
      "byteOffset": 87456,
      "byteLength": 21920,
      "target": 34962,
      "byteStride": 4,
      "extensions": {
        "EXT_meshopt_compression": {
          "buffer": 0,
          "byteOffset": 34820,
          "byteLength": 11317,
          "mode": "ATTRIBUTES",
          "filter": "OCTAHEDRAL",
          "byteStride": 4,
          "count": 5480
        }
      }
    },
    {
      "buffer": 1,
      "byteOffset": 109376,
      "byteLength": 25968,
      "target": 34962,
      "byteStride": 8,
      "extensions": {
        "EXT_meshopt_compression": {
          "buffer": 0,
          "byteOffset": 46140,
          "byteLength": 14531,
          "mode": "ATTRIBUTES",
          "byteStride": 8,
          "count": 3246
        }
      }
    },
    {
      "buffer": 1,
      "byteOffset": 135344,
      "byteLength": 43840,
      "target": 34962,
      "byteStride": 8,
      "extensions": {
        "EXT_meshopt_compression": {
          "buffer": 0,
          "byteOffset": 60672,
          "byteLength": 33514,
          "mode": "ATTRIBUTES",
          "byteStride": 8,
          "count": 5480
        }
      }
    },
    {
      "buffer": 1,
      "byteOffset": 179184,
      "byteLength": 21920,
      "target": 34962,
      "byteStride": 4,
      "extensions": {
        "EXT_meshopt_compression": {
          "buffer": 0,
          "byteOffset": 94188,
          "byteLength": 5865,
          "mode": "ATTRIBUTES",
          "byteStride": 4,
          "count": 5480
        }
      }
    }
  ],
  "samplers": [
    {
      "wrapS": 10497,
      "wrapT": 10497
    }
  ],
  "textures": [
    {
      "source": 0,
      "sampler": 0
    },
    {
      "source": 1,
      "sampler": 0
    }
  ],
  "images": [
    {
      "mimeType": "image/webp",
      "uri": "NormalTree_Bark.webp"
    },
    {
      "mimeType": "image/webp",
      "uri": "NormalTree_Leaves.webp"
    }
  ],
  "buffers": [
    {
      "uri": "NormalTree_2.bin",
      "byteLength": 100056
    },
    {
      "byteLength": 201104,
      "extensions": {
        "EXT_meshopt_compression": {
          "fallback": true
        }
      }
    }
  ],
  "materials": [
    {
      "name": "NormalTree_Bark",
      "pbrMetallicRoughness": {
        "baseColorTexture": {
          "index": 0
        }
      }
    },
    {
      "name": "NormalTree_Leaves",
      "alphaMode": "MASK",
      "alphaCutoff": 0.45,
      "doubleSided": true,
      "pbrMetallicRoughness": {
        "baseColorTexture": {
          "index": 1
        }
      }
    }
  ],
  "meshes": [
    {
      "primitives": [
        {
          "attributes": {
            "NORMAL": 1,
            "TEXCOORD_0": 2,
            "POSITION": 5
          },
          "mode": 4,
          "material": 0,
          "indices": 0
        },
        {
          "attributes": {
            "NORMAL": 4,
            "POSITION": 6,
            "TEXCOORD_0": 7
          },
          "mode": 4,
          "material": 1,
          "indices": 3
        }
      ]
    }
  ],
  "nodes": [
    {
      "name": "NormalTree_2",
      "translation": [
        -0.09456408023834229,
        3.2676550168544054,
        0.05134099721908569
      ],
      "scale": [
        3.277665017172694,
        3.277665017172694,
        3.277665017172694
      ],
      "mesh": 0
    }
  ],
  "scenes": [
    {
      "nodes": [
        0
      ]
    }
  ],
  "scene": 0,
  "extensionsUsed": [
    "EXT_meshopt_compression",
    "KHR_mesh_quantization"
  ],
  "extensionsRequired": [
    "EXT_meshopt_compression",
    "KHR_mesh_quantization"
  ]
}