{
  "asset": {
    "generator": "glTF-Transform v4.5.1",
    "version": "2.0"
  },
  "accessors": [
    {
      "type": "SCALAR",
      "componentType": 5123,
      "count": 4800,
      "normalized": false,
      "byteOffset": 0,
      "bufferView": 0
    },
    {
      "type": "VEC3",
      "componentType": 5120,
      "count": 976,
      "normalized": true,
      "byteOffset": 0,
      "bufferView": 1
    },
    {
      "type": "VEC2",
      "componentType": 5126,
      "count": 976,
      "normalized": false,
      "byteOffset": 0,
      "bufferView": 2
    },
    {
      "type": "SCALAR",
      "componentType": 5123,
      "count": 3348,
      "normalized": false,
      "byteOffset": 9600,
      "bufferView": 0
    },
    {
      "type": "VEC3",
      "componentType": 5120,
      "count": 972,
      "normalized": true,
      "byteOffset": 0,
      "bufferView": 3
    },
    {
      "type": "VEC3",
      "componentType": 5122,
      "count": 976,
      "max": [
        5876,
        32767,
        3280
      ],
      "min": [
        -6476,
        -32767,
        -5088
      ],
      "normalized": true,
      "byteOffset": 0,
      "bufferView": 4
    },
    {
      "type": "VEC3",
      "componentType": 5122,
      "count": 972,
      "max": [
        15541,
        32495,
        14133
      ],
      "min": [
        -15541,
        -11009,
        -14133
      ],
      "normalized": true,
      "byteOffset": 0,
      "bufferView": 5
    },
    {
      "type": "VEC2",
      "componentType": 5123,
      "count": 972,
      "normalized": true,
      "byteOffset": 0,
      "bufferView": 6
    }
  ],
  "bufferViews": [
    {
      "buffer": 1,
      "byteOffset": 0,
      "byteLength": 16296,
      "target": 34963,
      "extensions": {
        "EXT_meshopt_compression": {
          "buffer": 0,
          "byteOffset": 0,
          "byteLength": 2964,
          "mode": "TRIANGLES",
          "byteStride": 2,
          "count": 8148
        }
      }
    },
    {
      "buffer": 1,
      "byteOffset": 16296,
      "byteLength": 3904,
      "target": 34962,
      "byteStride": 4,
      "extensions": {
        "EXT_meshopt_compression": {
          "buffer": 0,
          "byteOffset": 2964,
          "byteLength": 1902,
          "mode": "ATTRIBUTES",
          "filter": "OCTAHEDRAL",
          "byteStride": 4,
          "count": 976
        }
      }
    },
    {
      "buffer": 1,
      "byteOffset": 20200,
      "byteLength": 7808,
      "target": 34962,
      "byteStride": 8,
      "extensions": {
        "EXT_meshopt_compression": {
          "buffer": 0,
          "byteOffset": 4868,
          "byteLength": 5497,
          "mode": "ATTRIBUTES",
          "byteStride": 8,
          "count": 976
        }
      }
    },
    {
      "buffer": 1,
      "byteOffset": 28008,
      "byteLength": 3888,
      "target": 34962,
      "byteStride": 4,
      "extensions": {
        "EXT_meshopt_compression": {
          "buffer": 0,
          "byteOffset": 10368,
          "byteLength": 2026,
          "mode": "ATTRIBUTES",
          "filter": "OCTAHEDRAL",
          "byteStride": 4,
          "count": 972
        }
      }
    },
    {
      "buffer": 1,
      "byteOffset": 31896,
      "byteLength": 7808,
      "target": 34962,
      "byteStride": 8,
      "extensions": {
        "EXT_meshopt_compression": {
          "buffer": 0,
          "byteOffset": 12396,
          "byteLength": 4173,
          "mode": "ATTRIBUTES",
          "byteStride": 8,
          "count": 976
        }
      }
    },
    {
      "buffer": 1,
      "byteOffset": 39704,
      "byteLength": 7776,
      "target": 34962,
      "byteStride": 8,
      "extensions": {
        "EXT_meshopt_compression": {
          "buffer": 0,
          "byteOffset": 16572,
          "byteLength": 5656,
          "mode": "ATTRIBUTES",
          "byteStride": 8,
          "count": 972
        }
      }
    },
    {
      "buffer": 1,
      "byteOffset": 47480,
      "byteLength": 3888,
      "target": 34962,
      "byteStride": 4,
      "extensions": {
        "EXT_meshopt_compression": {
          "buffer": 0,
          "byteOffset": 22228,
          "byteLength": 3902,
          "mode": "ATTRIBUTES",
          "byteStride": 4,
          "count": 972
        }
      }
    }
  ],
  "samplers": [
    {
      "wrapS": 10497,
      "wrapT": 10497
    }
  ],
  "textures": [
    {
      "source": 0,
      "sampler": 0
    },
    {
      "source": 1,
      "sampler": 0
    }
  ],
  "images": [
    {
      "mimeType": "image/webp",
      "uri": "PineTree_Bark.webp"
    },
    {
      "mimeType": "image/webp",
      "uri": "PineTree_Leaves.webp"
    }
  ],
  "buffers": [
    {
      "uri": "PineTree_2.bin",
      "byteLength": 26132
    },
    {
      "byteLength": 51368,
      "extensions": {
        "EXT_meshopt_compression": {
          "fallback": true
        }
      }
    }
  ],
  "materials": [
    {
      "name": "PineTree_Bark",
      "pbrMetallicRoughness": {
        "baseColorTexture": {
          "index": 0
        }
      }
    },
    {
      "name": "PineTree_Leaves",
      "alphaMode": "MASK",
      "alphaCutoff": 0.45,
      "doubleSided": true,
      "pbrMetallicRoughness": {
        "baseColorTexture": {
          "index": 1
        }
      }
    }
  ],
  "meshes": [
    {
      "primitives": [
        {
          "attributes": {
            "NORMAL": 1,
            "TEXCOORD_0": 2,
            "POSITION": 5
          },
          "mode": 4,
          "material": 0,
          "indices": 0
        },
        {
          "attributes": {
            "NORMAL": 4,
            "POSITION": 6,
            "TEXCOORD_0": 7
          },
          "mode": 4,
          "material": 1,
          "indices": 3
        }
      ]
    }
  ],
  "nodes": [
    {
      "name": "PineTree_2",
      "translation": [
        0.0844305157661438,
        3.458566418848932,
        0.07193303108215332
      ],
      "scale": [
        3.454305418767035,
        3.454305418767035,
        3.454305418767035
      ],
      "mesh": 0
    }
  ],
  "scenes": [
    {
      "nodes": [
        0
      ]
    }
  ],
  "scene": 0,
  "extensionsUsed": [
    "EXT_meshopt_compression",
    "KHR_mesh_quantization"
  ],
  "extensionsRequired": [
    "EXT_meshopt_compression",
    "KHR_mesh_quantization"
  ]
}