{"asset":{"generator":"Khronos glTF Blender I/O v4.3.47","version":"2.0"},"scene":0,"scenes":[{"name":"Scene","nodes":[66]}],"nodes":[{"name":"Head","rotation":[-0.20467473566532135,-4.759437705400649e-21,1.2439442348830942e-21,0.9788300395011902],"translation":[-1.5903435849255598e-27,0.0711912140250206,2.0489096641540527e-8]},{"children":[0],"name":"neck_01","rotation":[0.3088374435901642,8.337463586651673e-21,-5.849849968646638e-21,0.95111483335495],"translation":[-1.0141478263557337e-20,0.19815585017204285,2.60770320892334e-8]},{"name":"index_04_leaf_l","rotation":[-8.381903171539307e-9,1,-1.5432005174599583e-14,0.0000036517765238386346],"translation":[9.076757123693824e-10,0.023510519415140152,-3.8285477899080433e-8]},{"children":[2],"name":"index_03_l","rotation":[1.0023382124302316e-9,7.603918037758783e-13,-0.00013328436762094498,1],"scale":[0.9999999403953552,1,1],"translation":[4.420144250616431e-10,0.027111778035759926,-3.670398029953503e-8]},{"children":[3],"name":"index_02_l","rotation":[1.8987577732332284e-8,1.4024364247688936e-7,-0.002140256343409419,0.9999977350234985],"scale":[0.9999999403953552,1,1],"translation":[8.094502845779061e-11,0.03171013668179512,-6.863018597869086e-9]},{"children":[4],"name":"index_01_l","rotation":[-0.0033091865479946136,0.7071018815040588,-0.003309202380478382,0.7070961594581604],"translation":[0.004199977032840252,0.08823654055595398,0.03620496019721031]},{"name":"middle_04_leaf_l","rotation":[2.0489096641540527e-8,1,6.335320587363621e-14,0.0000036517765238386346],"translation":[2.193701220676303e-9,0.029620492830872536,1.1362611473941797e-7]},{"children":[6],"name":"middle_03_l","rotation":[2.420814304571195e-8,1.4173854798182894e-11,-0.0032189602497965097,0.9999948143959045],"scale":[0.9999998807907104,0.9999999403953552,1],"translation":[-4.32646629633382e-9,0.02931377850472927,3.287611605173879e-8]},{"children":[7],"name":"middle_02_l","rotation":[-2.949975197452659e-8,1.402399334438087e-7,0.0038676888216286898,0.9999924898147583],"translation":[1.6816557035781443e-9,0.03642695024609566,1.0210540324351314e-7]},{"children":[8],"name":"middle_01_l","rotation":[-0.007979890331625938,0.7070646286010742,-0.007979941554367542,0.7070589065551758],"scale":[1,0.9999998807907104,1],"translation":[0.001899929717183113,0.08634158223867416,0.010671664960682392]},{"name":"pinky_04_leaf_l","rotation":[8.381903171539307e-9,1,5.647658583201112e-14,0.00000365177675121231],"translation":[-1.317857822868973e-9,0.020919334143400192,-1.727942162688123e-7]},{"children":[10],"name":"pinky_03_l","rotation":[-2.1800540039862426e-8,5.25581791629981e-12,0.0028988486155867577,0.9999958276748657],"scale":[1,1.0000001192092896,1],"translation":[-1.318767317570746e-9,0.026631725952029228,-8.721048061488545e-8]},{"children":[11],"name":"pinky_02_l","rotation":[1.03155857189563e-8,1.4017835781032773e-7,-0.001705002854578197,0.9999985694885254],"scale":[0.9999999403953552,0.9999999403953552,1],"translation":[-2.967681211885065e-9,0.03083186410367489,-8.672896001371555e-8]},{"children":[12],"name":"pinky_01_l","rotation":[-0.01044775452464819,0.7070325016975403,-0.010447824373841286,0.7070267200469971],"scale":[0.9999999403953552,0.9999997615814209,0.9999999403953552],"translation":[0.003799965837970376,0.06994835287332535,-0.03399413824081421]},{"name":"ring_04_leaf_l","rotation":[2.7474015951156616e-8,1,1.0721373739979931e-13,0.00000365177675121231],"translation":[9.5042196335271e-10,0.028301579877734184,-3.474425369631717e-8]},{"children":[14],"name":"ring_03_l","rotation":[2.6234243222234e-8,4.3393351412124304e-11,-0.0034884933847934008,0.9999939203262329],"translation":[7.703420124016702e-9,0.027600184082984924,-1.1280478418029816e-7]},{"children":[15],"name":"ring_02_l","rotation":[-1.8197205520209536e-8,1.4009778226409253e-7,0.002474082401022315,0.9999969601631165],"translation":[-9.877112461254e-10,0.035001225769519806,-1.5782489981575054e-7]},{"children":[16],"name":"ring_01_l","rotation":[0.0025809321086853743,0.7071049213409424,0.0025809479411691427,0.707099199295044],"scale":[0.9999999403953552,0.9999997615814209,0.9999999403953552],"translation":[0.0021999571472406387,0.08042963594198227,-0.013825255446135998]},{"name":"thumb_04_leaf_l","rotation":[-1.2782692238033633e-8,0.48539119958877563,2.0375746601075662e-7,0.8742970824241638],"scale":[0.9999999403953552,1,1],"translation":[-1.2670352589339018e-7,0.03127264976501465,3.073364496231079e-8]},{"children":[18],"name":"thumb_03_l","rotation":[-0.0012816648231819272,0.00005811178561998531,0.0002541383437346667,0.9999991655349731],"scale":[1,1,0.9999999403953552],"translation":[2.2436142899096012e-7,0.035620346665382385,5.122274160385132e-9]},{"children":[19],"name":"thumb_02_l","rotation":[0.0019128327257931232,0.00019216042710468173,-0.0004484721284825355,0.9999980330467224],"scale":[1,0.9999998211860657,0.9999999403953552],"translation":[1.453081495128572e-7,0.03582108020782471,-1.30385160446167e-8]},{"children":[20],"name":"thumb_01_l","rotation":[0.263997346162796,0.9450139999389648,0.1882738322019577,0.04250776767730713],"scale":[1,1.0000004768371582,1],"translation":[0.009999980218708515,-0.0028757674153894186,0.029958141967654228]},{"children":[5,9,13,17,21],"name":"hand_l","rotation":[-0.02237604185938835,-0.000002264418526465306,-3.032003448311116e-8,0.9997496008872986],"translation":[1.532122695380167e-8,0.24930401146411896,5.277343007037416e-9]},{"children":[22],"name":"lowerarm_l","rotation":[0.023802155628800392,0.00008208974031731486,-0.0000018556972918304382,0.9997166991233826],"translation":[-4.793889729626244e-8,0.2403421401977539,-4.220055416226387e-9]},{"children":[23],"name":"upperarm_l","rotation":[0.17232586443424225,0.6858593225479126,-0.1717943400144577,0.68584805727005],"scale":[1,1,1.0000001192092896],"translation":[-0.0016045584343373775,0.1410660296678543,-0.01228591613471508]},{"children":[24],"name":"clavicle_l","rotation":[-0.5471324324607849,-0.3204275965690613,-0.39127784967422485,0.666988730430603],"scale":[1,0.9999999403953552,0.9999999403953552],"translation":[0.02930000051856041,0.13370320200920105,0.0448194220662117]},{"name":"index_04_leaf_r","rotation":[-8.381903171539307e-9,-1,1.5432005174599583e-14,0.0000036517765238386346],"translation":[-9.076757123693824e-10,0.023510519415140152,-3.8285477899080433e-8]},{"children":[26],"name":"index_03_r","rotation":[1.0023382124302316e-9,-7.603918037758783e-13,0.00013328436762094498,1],"scale":[0.9999999403953552,1,1],"translation":[-4.420144250616431e-10,0.027111778035759926,-3.670398029953503e-8]},{"children":[27],"name":"index_02_r","rotation":[1.8987577732332284e-8,-1.4024364247688936e-7,0.002140256343409419,0.9999977350234985],"scale":[0.9999999403953552,1,1],"translation":[-8.094502845779061e-11,0.03171013668179512,-6.863018597869086e-9]},{"children":[28],"name":"index_01_r","rotation":[-0.0033091865479946136,-0.7071018815040588,0.003309202380478382,0.7070961594581604],"translation":[-0.004199977032840252,0.08823654055595398,0.03620496019721031]},{"name":"middle_04_leaf_r","rotation":[2.0489096641540527e-8,-1,-6.335320587363621e-14,0.0000036517765238386346],"translation":[-2.193701220676303e-9,0.029620492830872536,1.1362611473941797e-7]},{"children":[30],"name":"middle_03_r","rotation":[2.420814304571195e-8,-1.4173854798182894e-11,0.0032189602497965097,0.9999948143959045],"scale":[0.9999998807907104,0.9999999403953552,1],"translation":[4.32646629633382e-9,0.02931377850472927,3.287611605173879e-8]},{"children":[31],"name":"middle_02_r","rotation":[-2.949975197452659e-8,-1.402399334438087e-7,-0.0038676888216286898,0.9999924898147583],"translation":[-1.6816557035781443e-9,0.03642695024609566,1.0210540324351314e-7]},{"children":[32],"name":"middle_01_r","rotation":[-0.007979890331625938,-0.7070646286010742,0.007979941554367542,0.7070589065551758],"scale":[1,0.9999998807907104,1],"translation":[-0.001899929717183113,0.08634158223867416,0.010671664960682392]},{"name":"pinky_04_leaf_r","rotation":[8.381903171539307e-9,-1,-5.647658583201112e-14,0.00000365177675121231],"translation":[1.317857822868973e-9,0.020919334143400192,-1.727942162688123e-7]},{"children":[34],"name":"pinky_03_r","rotation":[-2.1800540039862426e-8,-5.25581791629981e-12,-0.0028988486155867577,0.9999958276748657],"scale":[1,1.0000001192092896,1],"translation":[1.318767317570746e-9,0.026631725952029228,-8.721048061488545e-8]},{"children":[35],"name":"pinky_02_r","rotation":[1.03155857189563e-8,-1.4017835781032773e-7,0.001705002854578197,0.9999985694885254],"scale":[0.9999999403953552,0.9999999403953552,1],"translation":[2.967681211885065e-9,0.03083186410367489,-8.672896001371555e-8]},{"children":[36],"name":"pinky_01_r","rotation":[-0.01044775452464819,-0.7070325016975403,0.010447824373841286,0.7070267200469971],"scale":[0.9999999403953552,0.9999997615814209,0.9999999403953552],"translation":[-0.003799965837970376,0.06994835287332535,-0.03399413824081421]},{"name":"ring_04_leaf_r","rotation":[2.7474015951156616e-8,-1,-1.0721373739979931e-13,0.00000365177675121231],"translation":[-9.5042196335271e-10,0.028301579877734184,-3.474425369631717e-8]},{"children":[38],"name":"ring_03_r","rotation":[2.6234243222234e-8,-4.3393351412124304e-11,0.0034884933847934008,0.9999939203262329],"translation":[-7.703420124016702e-9,0.027600184082984924,-1.1280478418029816e-7]},{"children":[39],"name":"ring_02_r","rotation":[-1.8197205520209536e-8,-1.4009778226409253e-7,-0.002474082401022315,0.9999969601631165],"translation":[9.877112461254e-10,0.035001225769519806,-1.5782489981575054e-7]},{"children":[40],"name":"ring_01_r","rotation":[0.0025809321086853743,-0.7071049213409424,-0.0025809479411691427,0.707099199295044],"scale":[0.9999999403953552,0.9999997615814209,0.9999999403953552],"translation":[-0.0021999571472406387,0.08042963594198227,-0.013825255446135998]},{"name":"thumb_04_leaf_r","rotation":[-2.5565388028780944e-8,-0.48539119958877563,-1.9393742434203887e-7,0.8742970824241638],"scale":[0.9999998807907104,0.9999999403953552,0.9999999403953552],"translation":[1.2622331269085407e-7,0.031272709369659424,3.073364496231079e-8]},{"children":[42],"name":"thumb_03_r","rotation":[-0.0012816853122785687,-0.00005809385038446635,-0.00025414914125576615,0.9999991655349731],"scale":[1.0000001192092896,1.0000001192092896,1],"translation":[-1.0542134987190366e-7,0.03562036156654358,-8.847564458847046e-9]},{"children":[43],"name":"thumb_02_r","rotation":[0.001912830863147974,-0.00019218510715290904,0.0004484682867769152,0.9999980330467224],"scale":[1,0.9999998211860657,0.9999999403953552],"translation":[-1.453081495128572e-7,0.03582108020782471,-1.30385160446167e-8]},{"children":[44],"name":"thumb_01_r","rotation":[0.263997346162796,-0.9450139999389648,-0.1882738322019577,0.04250776767730713],"scale":[1,1.0000004768371582,1],"translation":[-0.009999980218708515,-0.0028757674153894186,0.029958141967654228]},{"children":[29,33,37,41,45],"name":"hand_r","rotation":[-0.02237604185938835,0.000002264418526465306,3.032003448311116e-8,0.9997496008872986],"translation":[-1.532122695380167e-8,0.24930401146411896,5.277343007037416e-9]},{"children":[46],"name":"lowerarm_r","rotation":[0.023802155628800392,-0.00008208974031731486,0.0000018556972918304382,0.9997166991233826],"translation":[4.793889729626244e-8,0.2403421401977539,-4.220055416226387e-9]},{"children":[47],"name":"upperarm_r","rotation":[0.17232586443424225,-0.6858593225479126,0.1717943400144577,0.68584805727005],"scale":[1,1,1.0000001192092896],"translation":[0.0016045584343373775,0.1410660296678543,-0.01228591613471508]},{"children":[48],"name":"clavicle_r","rotation":[-0.5471324324607849,0.3204275965690613,0.39127784967422485,0.666988730430603],"scale":[1,0.9999999403953552,0.9999999403953552],"translation":[-0.02930000051856041,0.13370320200920105,0.0448194220662117]},{"children":[1,25,49],"name":"spine_03","rotation":[-0.10099761933088303,4.5928396448426806e-14,-4.5242200827702583e-13,0.9948866963386536],"scale":[1,1,0.9999999403953552],"translation":[4.6735704609246064e-20,0.12640145421028137,3.4924596548080444e-10]},{"children":[50],"name":"spine_02","rotation":[-0.055728573352098465,-0.00004992229150957428,-0.0000027864282401424134,0.998445987701416],"scale":[1,0.9999998211860657,0.9999998807907104],"translation":[-4.263256414560601e-13,0.11034487932920456,8.381903171539307e-9]},{"children":[51],"name":"spine_01","rotation":[-0.06393160670995712,0.00004989771332475357,-0.00000319658010994317,0.9979543089866638],"scale":[1,0.9999999403953552,1],"translation":[0,0.12655510008335114,-9.313225746154785e-10]},{"name":"ball_leaf_l","rotation":[0,0.00017269056115765125,5.421010862427522e-20,1],"scale":[1,1.0000001192092896,1],"translation":[5.525180313270539e-10,0.06809987872838974,-1.204170985147357e-9]},{"children":[53],"name":"ball_l","rotation":[-0.00003296312570455484,0.9816133975982666,-0.1908797174692154,0.00016951537691056728],"scale":[1,1.0000001192092896,0.9999998807907104],"translation":[1.4901161193847656e-8,0.14916980266571045,-6.51925802230835e-9]},{"children":[54],"name":"foot_l","rotation":[-0.5978578329086304,0,0,0.8016021847724915],"scale":[1,1.0000001192092896,1],"translation":[-7.450580596923828e-9,0.4661003053188324,2.7939677238464355e-9]},{"children":[55],"name":"calf_l","rotation":[0.0712229460477829,0,0,0.9974604249000549],"scale":[1,0.9999999403953552,1],"translation":[-7.450580596923828e-9,0.4098641872406006,1.3969838619232178e-9]},{"children":[56],"name":"thigh_l","rotation":[0.9893749952316284,0,0,0.1453862488269806],"scale":[1,1,1.0000014305114746],"translation":[0.11140000075101852,0.010460092686116695,-0.008893024176359177]},{"name":"ball_leaf_r","rotation":[0,0.00017269056115765125,5.421010862427522e-20,1],"scale":[1,1.0000001192092896,1],"translation":[5.525180313270539e-10,0.06809987872838974,-1.5897967386990786e-9]},{"children":[58],"name":"ball_r","rotation":[-0.00003296312570455484,0.9816133975982666,-0.1908797174692154,0.00016951537691056728],"scale":[1,1.0000001192092896,0.9999998807907104],"translation":[-1.4901161193847656e-8,0.14916980266571045,-6.51925802230835e-9]},{"children":[59],"name":"foot_r","rotation":[-0.5978578329086304,0,0,0.8016021847724915],"scale":[1,1.0000001192092896,1],"translation":[7.450580596923828e-9,0.4661003053188324,2.7939677238464355e-9]},{"children":[60],"name":"calf_r","rotation":[0.0712229460477829,0,0,0.9974604249000549],"scale":[1,0.9999999403953552,1],"translation":[7.450580596923828e-9,0.4098641872406006,1.3969838619232178e-9]},{"children":[61],"name":"thigh_r","rotation":[0.9893749952316284,0,0,0.1453862488269806],"scale":[1,1,1.0000014305114746],"translation":[-0.11140000075101852,0.010460092686116695,-0.008893024176359177]},{"children":[52,57,62],"name":"pelvis","rotation":[0.7879695892333984,0,0,0.6157141923904419],"translation":[0,0.045700013637542725,0.9318000078201294]},{"children":[63],"name":"root","rotation":[-0.7071067690849304,0,0,0.7071067690849304]},{"mesh":0,"name":"Female_Peasant_Body","skin":0},{"children":[65,64],"name":"Armature"}],"materials":[{"doubleSided":true,"name":"MI_Peasant","pbrMetallicRoughness":{"baseColorTexture":{"index":0}}}],"meshes":[{"name":"Female_Peasant_Body","primitives":[{"attributes":{"POSITION":0,"NORMAL":1,"TEXCOORD_0":2,"COLOR_0":3,"COLOR_1":4,"JOINTS_0":5,"WEIGHTS_0":6},"indices":7,"material":0}]}],"textures":[{"source":0}],"images":[{"uri":"T_Peasant_BaseColor.webp"}],"skins":[{"inverseBindMatrices":8,"joints":[64,63,52,51,50,1,0,25,24,23,22,5,4,3,2,9,8,7,6,13,12,11,10,17,16,15,14,21,20,19,18,49,48,47,46,29,28,27,26,33,32,31,30,37,36,35,34,41,40,39,38,45,44,43,42,57,56,55,54,53,62,61,60,59,58],"name":"Armature"}],"accessors":[{"bufferView":0,"componentType":5126,"count":1730,"max":[0.1719590276479721,1.5184329748153687,0.13477008044719696],"min":[-0.1719590276479721,0.9879093766212463,-0.14160048961639404],"type":"VEC3"},{"bufferView":1,"componentType":5126,"count":1730,"type":"VEC3"},{"bufferView":2,"componentType":5126,"count":1730,"type":"VEC2"},{"bufferView":3,"componentType":5121,"count":1730,"normalized":true,"type":"VEC4"},{"bufferView":4,"componentType":5123,"count":1730,"normalized":true,"type":"VEC4"},{"bufferView":5,"componentType":5121,"count":1730,"type":"VEC4"},{"bufferView":6,"componentType":5126,"count":1730,"type":"VEC4"},{"bufferView":7,"componentType":5123,"count":6564,"type":"SCALAR"},{"bufferView":8,"componentType":5126,"count":65,"type":"MAT4"},{"bufferView":9,"componentType":5126,"count":29,"max":[1.1666666666666667],"min":[0],"type":"SCALAR"},{"bufferView":10,"componentType":5126,"count":29,"type":"VEC3"},{"bufferView":11,"componentType":5126,"count":29,"type":"VEC4"},{"bufferView":12,"componentType":5126,"count":29,"type":"VEC3"},{"bufferView":13,"componentType":5126,"count":29,"type":"VEC3"},{"bufferView":14,"componentType":5126,"count":29,"type":"VEC4"},{"bufferView":15,"componentType":5126,"count":29,"type":"VEC3"},{"bufferView":16,"componentType":5126,"count":29,"type":"VEC3"},{"bufferView":17,"componentType":5126,"count":29,"type":"VEC4"},{"bufferView":18,"componentType":5126,"count":29,"type":"VEC3"},{"bufferView":19,"componentType":5126,"count":29,"type":"VEC3"},{"bufferView":20,"componentType":5126,"count":29,"type":"VEC4"},{"bufferView":21,"componentType":5126,"count":29,"type":"VEC3"},{"bufferView":22,"componentType":5126,"count":29,"type":"VEC3"},{"bufferView":23,"componentType":5126,"count":29,"type":"VEC4"},{"bufferView":24,"componentType":5126,"count":29,"type":"VEC3"},{"bufferView":25,"componentType":5126,"count":29,"type":"VEC3"},{"bufferView":26,"componentType":5126,"count":29,"type":"VEC4"},{"bufferView":27,"componentType":5126,"count":29,"type":"VEC3"},{"bufferView":28,"componentType":5126,"count":29,"type":"VEC3"},{"bufferView":29,"componentType":5126,"count":29,"type":"VEC4"},{"bufferView":30,"componentType":5126,"count":29,"type":"VEC3"},{"bufferView":31,"componentType":5126,"count":29,"type":"VEC3"},{"bufferView":32,"componentType":5126,"count":29,"type":"VEC4"},{"bufferView":33,"componentType":5126,"count":29,"type":"VEC3"},{"bufferView":34,"componentType":5126,"count":29,"type":"VEC3"},{"bufferView":35,"componentType":5126,"count":29,"type":"VEC4"},{"bufferView":36,"componentType":5126,"count":29,"type":"VEC3"},{"bufferView":37,"componentType":5126,"count":29,"type":"VEC3"},{"bufferView":38,"componentType":5126,"count":29,"type":"VEC4"},{"bufferView":39,"componentType":5126,"count":29,"type":"VEC3"},{"bufferView":40,"componentType":5126,"count":29,"type":"VEC3"},{"bufferView":41,"componentType":5126,"count":29,"type":"VEC4"},{"bufferView":42,"componentType":5126,"count":29,"type":"VEC3"},{"bufferView":43,"componentType":5126,"count":29,"type":"VEC3"},{"bufferView":44,"componentType":5126,"count":29,"type":"VEC4"},{"bufferView":45,"componentType":5126,"count":29,"type":"VEC3"},{"bufferView":46,"componentType":5126,"count":29,"type":"VEC3"},{"bufferView":47,"componentType":5126,"count":29,"type":"VEC4"},{"bufferView":48,"componentType":5126,"count":29,"type":"VEC3"},{"bufferView":49,"componentType":5126,"count":29,"type":"VEC3"},{"bufferView":50,"componentType":5126,"count":29,"type":"VEC4"},{"bufferView":51,"componentType":5126,"count":29,"type":"VEC3"},{"bufferView":52,"componentType":5126,"count":29,"type":"VEC3"},{"bufferView":53,"componentType":5126,"count":29,"type":"VEC4"},{"bufferView":54,"componentType":5126,"count":29,"type":"VEC3"},{"bufferView":55,"componentType":5126,"count":29,"type":"VEC3"},{"bufferView":56,"componentType":5126,"count":29,"type":"VEC4"},{"bufferView":57,"componentType":5126,"count":29,"type":"VEC3"},{"bufferView":58,"componentType":5126,"count":29,"type":"VEC3"},{"bufferView":59,"componentType":5126,"count":29,"type":"VEC4"},{"bufferView":60,"componentType":5126,"count":29,"type":"VEC3"},{"bufferView":61,"componentType":5126,"count":29,"type":"VEC3"},{"bufferView":62,"componentType":5126,"count":29,"type":"VEC4"},{"bufferView":63,"componentType":5126,"count":29,"type":"VEC3"},{"bufferView":64,"componentType":5126,"count":29,"type":"VEC3"},{"bufferView":65,"componentType":5126,"count":29,"type":"VEC4"},{"bufferView":66,"componentType":5126,"count":29,"type":"VEC3"},{"bufferView":67,"componentType":5126,"count":29,"type":"VEC3"},{"bufferView":68,"componentType":5126,"count":29,"type":"VEC4"},{"bufferView":69,"componentType":5126,"count":29,"type":"VEC3"},{"bufferView":70,"componentType":5126,"count":29,"type":"VEC3"},{"bufferView":71,"componentType":5126,"count":29,"type":"VEC4"},{"bufferView":72,"componentType":5126,"count":29,"type":"VEC3"},{"bufferView":73,"componentType":5126,"count":29,"type":"VEC3"},{"bufferView":74,"componentType":5126,"count":29,"type":"VEC4"},{"bufferView":75,"componentType":5126,"count":29,"type":"VEC3"},{"bufferView":76,"componentType":5126,"count":29,"type":"VEC3"},{"bufferView":77,"componentType":5126,"count":29,"type":"VEC4"},{"bufferView":78,"componentType":5126,"count":29,"type":"VEC3"},{"bufferView":79,"componentType":5126,"count":29,"type":"VEC3"},{"bufferView":80,"componentType":5126,"count":29,"type":"VEC4"},{"bufferView":81,"componentType":5126,"count":29,"type":"VEC3"},{"bufferView":82,"componentType":5126,"count":29,"type":"VEC3"},{"bufferView":83,"componentType":5126,"count":29,"type":"VEC4"},{"bufferView":84,"componentType":5126,"count":29,"type":"VEC3"},{"bufferView":85,"componentType":5126,"count":29,"type":"VEC3"},{"bufferView":86,"componentType":5126,"count":29,"type":"VEC4"},{"bufferView":87,"componentType":5126,"count":29,"type":"VEC3"},{"bufferView":88,"componentType":5126,"count":29,"type":"VEC3"},{"bufferView":89,"componentType":5126,"count":29,"type":"VEC4"},{"bufferView":90,"componentType":5126,"count":29,"type":"VEC3"},{"bufferView":91,"componentType":5126,"count":29,"type":"VEC3"},{"bufferView":92,"componentType":5126,"count":29,"type":"VEC4"},{"bufferView":93,"componentType":5126,"count":29,"type":"VEC3"},{"bufferView":94,"componentType":5126,"count":29,"type":"VEC3"},{"bufferView":95,"componentType":5126,"count":29,"type":"VEC4"},{"bufferView":96,"componentType":5126,"count":29,"type":"VEC3"},{"bufferView":97,"componentType":5126,"count":29,"type":"VEC3"},{"bufferView":98,"componentType":5126,"count":29,"type":"VEC4"},{"bufferView":99,"componentType":5126,"count":29,"type":"VEC3"},{"bufferView":100,"componentType":5126,"count":29,"type":"VEC3"},{"bufferView":101,"componentType":5126,"count":29,"type":"VEC4"},{"bufferView":102,"componentType":5126,"count":29,"type":"VEC3"},{"bufferView":103,"componentType":5126,"count":29,"type":"VEC3"},{"bufferView":104,"componentType":5126,"count":29,"type":"VEC4"},{"bufferView":105,"componentType":5126,"count":29,"type":"VEC3"},{"bufferView":106,"componentType":5126,"count":29,"type":"VEC3"},{"bufferView":107,"componentType":5126,"count":29,"type":"VEC4"},{"bufferView":108,"componentType":5126,"count":29,"type":"VEC3"},{"bufferView":109,"componentType":5126,"count":29,"type":"VEC3"},{"bufferView":110,"componentType":5126,"count":29,"type":"VEC4"},{"bufferView":111,"componentType":5126,"count":29,"type":"VEC3"},{"bufferView":112,"componentType":5126,"count":29,"type":"VEC3"},{"bufferView":113,"componentType":5126,"count":29,"type":"VEC4"},{"bufferView":114,"componentType":5126,"count":29,"type":"VEC3"},{"bufferView":115,"componentType":5126,"count":29,"type":"VEC3"},{"bufferView":116,"componentType":5126,"count":29,"type":"VEC4"},{"bufferView":117,"componentType":5126,"count":29,"type":"VEC3"},{"bufferView":118,"componentType":5126,"count":29,"type":"VEC3"},{"bufferView":119,"componentType":5126,"count":29,"type":"VEC4"},{"bufferView":120,"componentType":5126,"count":29,"type":"VEC3"},{"bufferView":121,"componentType":5126,"count":29,"type":"VEC3"},{"bufferView":122,"componentType":5126,"count":29,"type":"VEC4"},{"bufferView":123,"componentType":5126,"count":29,"type":"VEC3"},{"bufferView":124,"componentType":5126,"count":29,"type":"VEC3"},{"bufferView":125,"componentType":5126,"count":29,"type":"VEC4"},{"bufferView":126,"componentType":5126,"count":29,"type":"VEC3"},{"bufferView":127,"componentType":5126,"count":29,"type":"VEC3"},{"bufferView":128,"componentType":5126,"count":29,"type":"VEC4"},{"bufferView":129,"componentType":5126,"count":29,"type":"VEC3"},{"bufferView":130,"componentType":5126,"count":29,"type":"VEC3"},{"bufferView":131,"componentType":5126,"count":29,"type":"VEC4"},{"bufferView":132,"componentType":5126,"count":29,"type":"VEC3"},{"bufferView":133,"componentType":5126,"count":29,"type":"VEC3"},{"bufferView":134,"componentType":5126,"count":29,"type":"VEC4"},{"bufferView":135,"componentType":5126,"count":29,"type":"VEC3"},{"bufferView":136,"componentType":5126,"count":29,"type":"VEC3"},{"bufferView":137,"componentType":5126,"count":29,"type":"VEC4"},{"bufferView":138,"componentType":5126,"count":29,"type":"VEC3"},{"bufferView":139,"componentType":5126,"count":29,"type":"VEC3"},{"bufferView":140,"componentType":5126,"count":29,"type":"VEC4"},{"bufferView":141,"componentType":5126,"count":29,"type":"VEC3"},{"bufferView":142,"componentType":5126,"count":29,"type":"VEC3"},{"bufferView":143,"componentType":5126,"count":29,"type":"VEC4"},{"bufferView":144,"componentType":5126,"count":29,"type":"VEC3"},{"bufferView":145,"componentType":5126,"count":29,"type":"VEC3"},{"bufferView":146,"componentType":5126,"count":29,"type":"VEC4"},{"bufferView":147,"componentType":5126,"count":29,"type":"VEC3"},{"bufferView":148,"componentType":5126,"count":29,"type":"VEC3"},{"bufferView":149,"componentType":5126,"count":29,"type":"VEC4"},{"bufferView":150,"componentType":5126,"count":29,"type":"VEC3"},{"bufferView":151,"componentType":5126,"count":29,"type":"VEC3"},{"bufferView":152,"componentType":5126,"count":29,"type":"VEC4"},{"bufferView":153,"componentType":5126,"count":29,"type":"VEC3"},{"bufferView":154,"componentType":5126,"count":29,"type":"VEC3"},{"bufferView":155,"componentType":5126,"count":29,"type":"VEC4"},{"bufferView":156,"componentType":5126,"count":29,"type":"VEC3"},{"bufferView":157,"componentType":5126,"count":29,"type":"VEC3"},{"bufferView":158,"componentType":5126,"count":29,"type":"VEC4"},{"bufferView":159,"componentType":5126,"count":29,"type":"VEC3"},{"bufferView":160,"componentType":5126,"count":29,"type":"VEC3"},{"bufferView":161,"componentType":5126,"count":29,"type":"VEC4"},{"bufferView":162,"componentType":5126,"count":29,"type":"VEC3"},{"bufferView":163,"componentType":5126,"count":29,"type":"VEC3"},{"bufferView":164,"componentType":5126,"count":29,"type":"VEC4"},{"bufferView":165,"componentType":5126,"count":29,"type":"VEC3"},{"bufferView":166,"componentType":5126,"count":29,"type":"VEC3"},{"bufferView":167,"componentType":5126,"count":29,"type":"VEC4"},{"bufferView":168,"componentType":5126,"count":29,"type":"VEC3"},{"bufferView":169,"componentType":5126,"count":29,"type":"VEC3"},{"bufferView":170,"componentType":5126,"count":29,"type":"VEC4"},{"bufferView":171,"componentType":5126,"count":29,"type":"VEC3"},{"bufferView":172,"componentType":5126,"count":29,"type":"VEC3"},{"bufferView":173,"componentType":5126,"count":29,"type":"VEC4"},{"bufferView":174,"componentType":5126,"count":29,"type":"VEC3"},{"bufferView":175,"componentType":5126,"count":29,"type":"VEC3"},{"bufferView":176,"componentType":5126,"count":29,"type":"VEC4"},{"bufferView":177,"componentType":5126,"count":29,"type":"VEC3"},{"bufferView":178,"componentType":5126,"count":29,"type":"VEC3"},{"bufferView":179,"componentType":5126,"count":29,"type":"VEC4"},{"bufferView":180,"componentType":5126,"count":29,"type":"VEC3"},{"bufferView":181,"componentType":5126,"count":29,"type":"VEC3"},{"bufferView":182,"componentType":5126,"count":29,"type":"VEC4"},{"bufferView":183,"componentType":5126,"count":29,"type":"VEC3"},{"bufferView":184,"componentType":5126,"count":29,"type":"VEC3"},{"bufferView":185,"componentType":5126,"count":29,"type":"VEC4"},{"bufferView":186,"componentType":5126,"count":29,"type":"VEC3"},{"bufferView":187,"componentType":5126,"count":29,"type":"VEC3"},{"bufferView":188,"componentType":5126,"count":29,"type":"VEC4"},{"bufferView":189,"componentType":5126,"count":29,"type":"VEC3"},{"bufferView":190,"componentType":5126,"count":29,"type":"VEC3"},{"bufferView":191,"componentType":5126,"count":29,"type":"VEC4"},{"bufferView":192,"componentType":5126,"count":29,"type":"VEC3"},{"bufferView":193,"componentType":5126,"count":29,"type":"VEC3"},{"bufferView":194,"componentType":5126,"count":29,"type":"VEC4"},{"bufferView":195,"componentType":5126,"count":29,"type":"VEC3"},{"bufferView":196,"componentType":5126,"count":29,"type":"VEC3"},{"bufferView":197,"componentType":5126,"count":29,"type":"VEC4"},{"bufferView":198,"componentType":5126,"count":29,"type":"VEC3"},{"bufferView":199,"componentType":5126,"count":29,"type":"VEC3"},{"bufferView":200,"componentType":5126,"count":29,"type":"VEC4"},{"bufferView":201,"componentType":5126,"count":29,"type":"VEC3"},{"bufferView":202,"componentType":5126,"count":29,"type":"VEC3"},{"bufferView":203,"componentType":5126,"count":29,"type":"VEC4"},{"bufferView":204,"componentType":5126,"count":29,"type":"VEC3"}],"bufferViews":[{"buffer":0,"byteLength":20760,"byteOffset":0,"target":34962},{"buffer":0,"byteLength":20760,"byteOffset":20760,"target":34962},{"buffer":0,"byteLength":13840,"byteOffset":41520,"target":34962},{"buffer":0,"byteLength":6920,"byteOffset":55360,"target":34962},{"buffer":0,"byteLength":13840,"byteOffset":62280,"target":34962},{"buffer":0,"byteLength":6920,"byteOffset":76120,"target":34962},{"buffer":0,"byteLength":27680,"byteOffset":83040,"target":34962},{"buffer":0,"byteLength":13128,"byteOffset":110720,"target":34963},{"buffer":0,"byteLength":4160,"byteOffset":123848},{"buffer":0,"byteLength":116,"byteOffset":128008},{"buffer":0,"byteLength":348,"byteOffset":128124},{"buffer":0,"byteLength":464,"byteOffset":128472},{"buffer":0,"byteLength":348,"byteOffset":128936},{"buffer":0,"byteLength":348,"byteOffset":129284},{"buffer":0,"byteLength":464,"byteOffset":129632},{"buffer":0,"byteLength":348,"byteOffset":130096},{"buffer":0,"byteLength":348,"byteOffset":130444},{"buffer":0,"byteLength":464,"byteOffset":130792},{"buffer":0,"byteLength":348,"byteOffset":131256},{"buffer":0,"byteLength":348,"byteOffset":131604},{"buffer":0,"byteLength":464,"byteOffset":131952},{"buffer":0,"byteLength":348,"byteOffset":132416},{"buffer":0,"byteLength":348,"byteOffset":132764},{"buffer":0,"byteLength":464,"byteOffset":133112},{"buffer":0,"byteLength":348,"byteOffset":133576},{"buffer":0,"byteLength":348,"byteOffset":133924},{"buffer":0,"byteLength":464,"byteOffset":134272},{"buffer":0,"byteLength":348,"byteOffset":134736},{"buffer":0,"byteLength":348,"byteOffset":135084},{"buffer":0,"byteLength":464,"byteOffset":135432},{"buffer":0,"byteLength":348,"byteOffset":135896},{"buffer":0,"byteLength":348,"byteOffset":136244},{"buffer":0,"byteLength":464,"byteOffset":136592},{"buffer":0,"byteLength":348,"byteOffset":137056},{"buffer":0,"byteLength":348,"byteOffset":137404},{"buffer":0,"byteLength":464,"byteOffset":137752},{"buffer":0,"byteLength":348,"byteOffset":138216},{"buffer":0,"byteLength":348,"byteOffset":138564},{"buffer":0,"byteLength":464,"byteOffset":138912},{"buffer":0,"byteLength":348,"byteOffset":139376},{"buffer":0,"byteLength":348,"byteOffset":139724},{"buffer":0,"byteLength":464,"byteOffset":140072},{"buffer":0,"byteLength":348,"byteOffset":140536},{"buffer":0,"byteLength":348,"byteOffset":140884},{"buffer":0,"byteLength":464,"byteOffset":141232},{"buffer":0,"byteLength":348,"byteOffset":141696},{"buffer":0,"byteLength":348,"byteOffset":142044},{"buffer":0,"byteLength":464,"byteOffset":142392},{"buffer":0,"byteLength":348,"byteOffset":142856},{"buffer":0,"byteLength":348,"byteOffset":143204},{"buffer":0,"byteLength":464,"byteOffset":143552},{"buffer":0,"byteLength":348,"byteOffset":144016},{"buffer":0,"byteLength":348,"byteOffset":144364},{"buffer":0,"byteLength":464,"byteOffset":144712},{"buffer":0,"byteLength":348,"byteOffset":145176},{"buffer":0,"byteLength":348,"byteOffset":145524},{"buffer":0,"byteLength":464,"byteOffset":145872},{"buffer":0,"byteLength":348,"byteOffset":146336},{"buffer":0,"byteLength":348,"byteOffset":146684},{"buffer":0,"byteLength":464,"byteOffset":147032},{"buffer":0,"byteLength":348,"byteOffset":147496},{"buffer":0,"byteLength":348,"byteOffset":147844},{"buffer":0,"byteLength":464,"byteOffset":148192},{"buffer":0,"byteLength":348,"byteOffset":148656},{"buffer":0,"byteLength":348,"byteOffset":149004},{"buffer":0,"byteLength":464,"byteOffset":149352},{"buffer":0,"byteLength":348,"byteOffset":149816},{"buffer":0,"byteLength":348,"byteOffset":150164},{"buffer":0,"byteLength":464,"byteOffset":150512},{"buffer":0,"byteLength":348,"byteOffset":150976},{"buffer":0,"byteLength":348,"byteOffset":151324},{"buffer":0,"byteLength":464,"byteOffset":151672},{"buffer":0,"byteLength":348,"byteOffset":152136},{"buffer":0,"byteLength":348,"byteOffset":152484},{"buffer":0,"byteLength":464,"byteOffset":152832},{"buffer":0,"byteLength":348,"byteOffset":153296},{"buffer":0,"byteLength":348,"byteOffset":153644},{"buffer":0,"byteLength":464,"byteOffset":153992},{"buffer":0,"byteLength":348,"byteOffset":154456},{"buffer":0,"byteLength":348,"byteOffset":154804},{"buffer":0,"byteLength":464,"byteOffset":155152},{"buffer":0,"byteLength":348,"byteOffset":155616},{"buffer":0,"byteLength":348,"byteOffset":155964},{"buffer":0,"byteLength":464,"byteOffset":156312},{"buffer":0,"byteLength":348,"byteOffset":156776},{"buffer":0,"byteLength":348,"byteOffset":157124},{"buffer":0,"byteLength":464,"byteOffset":157472},{"buffer":0,"byteLength":348,"byteOffset":157936},{"buffer":0,"byteLength":348,"byteOffset":158284},{"buffer":0,"byteLength":464,"byteOffset":158632},{"buffer":0,"byteLength":348,"byteOffset":159096},{"buffer":0,"byteLength":348,"byteOffset":159444},{"buffer":0,"byteLength":464,"byteOffset":159792},{"buffer":0,"byteLength":348,"byteOffset":160256},{"buffer":0,"byteLength":348,"byteOffset":160604},{"buffer":0,"byteLength":464,"byteOffset":160952},{"buffer":0,"byteLength":348,"byteOffset":161416},{"buffer":0,"byteLength":348,"byteOffset":161764},{"buffer":0,"byteLength":464,"byteOffset":162112},{"buffer":0,"byteLength":348,"byteOffset":162576},{"buffer":0,"byteLength":348,"byteOffset":162924},{"buffer":0,"byteLength":464,"byteOffset":163272},{"buffer":0,"byteLength":348,"byteOffset":163736},{"buffer":0,"byteLength":348,"byteOffset":164084},{"buffer":0,"byteLength":464,"byteOffset":164432},{"buffer":0,"byteLength":348,"byteOffset":164896},{"buffer":0,"byteLength":348,"byteOffset":165244},{"buffer":0,"byteLength":464,"byteOffset":165592},{"buffer":0,"byteLength":348,"byteOffset":166056},{"buffer":0,"byteLength":348,"byteOffset":166404},{"buffer":0,"byteLength":464,"byteOffset":166752},{"buffer":0,"byteLength":348,"byteOffset":167216},{"buffer":0,"byteLength":348,"byteOffset":167564},{"buffer":0,"byteLength":464,"byteOffset":167912},{"buffer":0,"byteLength":348,"byteOffset":168376},{"buffer":0,"byteLength":348,"byteOffset":168724},{"buffer":0,"byteLength":464,"byteOffset":169072},{"buffer":0,"byteLength":348,"byteOffset":169536},{"buffer":0,"byteLength":348,"byteOffset":169884},{"buffer":0,"byteLength":464,"byteOffset":170232},{"buffer":0,"byteLength":348,"byteOffset":170696},{"buffer":0,"byteLength":348,"byteOffset":171044},{"buffer":0,"byteLength":464,"byteOffset":171392},{"buffer":0,"byteLength":348,"byteOffset":171856},{"buffer":0,"byteLength":348,"byteOffset":172204},{"buffer":0,"byteLength":464,"byteOffset":172552},{"buffer":0,"byteLength":348,"byteOffset":173016},{"buffer":0,"byteLength":348,"byteOffset":173364},{"buffer":0,"byteLength":464,"byteOffset":173712},{"buffer":0,"byteLength":348,"byteOffset":174176},{"buffer":0,"byteLength":348,"byteOffset":174524},{"buffer":0,"byteLength":464,"byteOffset":174872},{"buffer":0,"byteLength":348,"byteOffset":175336},{"buffer":0,"byteLength":348,"byteOffset":175684},{"buffer":0,"byteLength":464,"byteOffset":176032},{"buffer":0,"byteLength":348,"byteOffset":176496},{"buffer":0,"byteLength":348,"byteOffset":176844},{"buffer":0,"byteLength":464,"byteOffset":177192},{"buffer":0,"byteLength":348,"byteOffset":177656},{"buffer":0,"byteLength":348,"byteOffset":178004},{"buffer":0,"byteLength":464,"byteOffset":178352},{"buffer":0,"byteLength":348,"byteOffset":178816},{"buffer":0,"byteLength":348,"byteOffset":179164},{"buffer":0,"byteLength":464,"byteOffset":179512},{"buffer":0,"byteLength":348,"byteOffset":179976},{"buffer":0,"byteLength":348,"byteOffset":180324},{"buffer":0,"byteLength":464,"byteOffset":180672},{"buffer":0,"byteLength":348,"byteOffset":181136},{"buffer":0,"byteLength":348,"byteOffset":181484},{"buffer":0,"byteLength":464,"byteOffset":181832},{"buffer":0,"byteLength":348,"byteOffset":182296},{"buffer":0,"byteLength":348,"byteOffset":182644},{"buffer":0,"byteLength":464,"byteOffset":182992},{"buffer":0,"byteLength":348,"byteOffset":183456},{"buffer":0,"byteLength":348,"byteOffset":183804},{"buffer":0,"byteLength":464,"byteOffset":184152},{"buffer":0,"byteLength":348,"byteOffset":184616},{"buffer":0,"byteLength":348,"byteOffset":184964},{"buffer":0,"byteLength":464,"byteOffset":185312},{"buffer":0,"byteLength":348,"byteOffset":185776},{"buffer":0,"byteLength":348,"byteOffset":186124},{"buffer":0,"byteLength":464,"byteOffset":186472},{"buffer":0,"byteLength":348,"byteOffset":186936},{"buffer":0,"byteLength":348,"byteOffset":187284},{"buffer":0,"byteLength":464,"byteOffset":187632},{"buffer":0,"byteLength":348,"byteOffset":188096},{"buffer":0,"byteLength":348,"byteOffset":188444},{"buffer":0,"byteLength":464,"byteOffset":188792},{"buffer":0,"byteLength":348,"byteOffset":189256},{"buffer":0,"byteLength":348,"byteOffset":189604},{"buffer":0,"byteLength":464,"byteOffset":189952},{"buffer":0,"byteLength":348,"byteOffset":190416},{"buffer":0,"byteLength":348,"byteOffset":190764},{"buffer":0,"byteLength":464,"byteOffset":191112},{"buffer":0,"byteLength":348,"byteOffset":191576},{"buffer":0,"byteLength":348,"byteOffset":191924},{"buffer":0,"byteLength":464,"byteOffset":192272},{"buffer":0,"byteLength":348,"byteOffset":192736},{"buffer":0,"byteLength":348,"byteOffset":193084},{"buffer":0,"byteLength":464,"byteOffset":193432},{"buffer":0,"byteLength":348,"byteOffset":193896},{"buffer":0,"byteLength":348,"byteOffset":194244},{"buffer":0,"byteLength":464,"byteOffset":194592},{"buffer":0,"byteLength":348,"byteOffset":195056},{"buffer":0,"byteLength":348,"byteOffset":195404},{"buffer":0,"byteLength":464,"byteOffset":195752},{"buffer":0,"byteLength":348,"byteOffset":196216},{"buffer":0,"byteLength":348,"byteOffset":196564},{"buffer":0,"byteLength":464,"byteOffset":196912},{"buffer":0,"byteLength":348,"byteOffset":197376},{"buffer":0,"byteLength":348,"byteOffset":197724},{"buffer":0,"byteLength":464,"byteOffset":198072},{"buffer":0,"byteLength":348,"byteOffset":198536},{"buffer":0,"byteLength":348,"byteOffset":198884},{"buffer":0,"byteLength":464,"byteOffset":199232},{"buffer":0,"byteLength":348,"byteOffset":199696},{"buffer":0,"byteLength":348,"byteOffset":200044},{"buffer":0,"byteLength":464,"byteOffset":200392},{"buffer":0,"byteLength":348,"byteOffset":200856},{"buffer":0,"byteLength":348,"byteOffset":201204},{"buffer":0,"byteLength":464,"byteOffset":201552},{"buffer":0,"byteLength":348,"byteOffset":202016},{"buffer":0,"byteLength":348,"byteOffset":202364},{"buffer":0,"byteLength":464,"byteOffset":202712},{"buffer":0,"byteLength":348,"byteOffset":203176}],"buffers":[{"byteLength":203524,"uri":"Female_Peasant_Body.bin"}]}