{
  "asset": {
    "generator": "glTF-Transform v4.5.1",
    "version": "2.0"
  },
  "accessors": [
    {
      "type": "SCALAR",
      "componentType": 5123,
      "count": 1362,
      "normalized": false,
      "byteOffset": 0,
      "bufferView": 0
    },
    {
      "type": "VEC3",
      "componentType": 5120,
      "count": 744,
      "normalized": true,
      "byteOffset": 0,
      "bufferView": 1
    },
    {
      "type": "VEC2",
      "componentType": 5126,
      "count": 744,
      "normalized": false,
      "byteOffset": 0,
      "bufferView": 2
    },
    {
      "type": "SCALAR",
      "componentType": 5123,
      "count": 48,
      "normalized": false,
      "byteOffset": 2724,
      "bufferView": 0
    },
    {
      "type": "VEC3",
      "componentType": 5120,
      "count": 28,
      "normalized": true,
      "byteOffset": 0,
      "bufferView": 3
    },
    {
      "type": "VEC3",
      "componentType": 5122,
      "count": 744,
      "max": [
        15829,
        32767,
        1704
      ],
      "min": [
        -15829,
        -32767,
        -1704
      ],
      "normalized": true,
      "byteOffset": 0,
      "bufferView": 4
    },
    {
      "type": "VEC3",
      "componentType": 5122,
      "count": 28,
      "max": [
        9981,
        16117,
        804
      ],
      "min": [
        -9953,
        3380,
        804
      ],
      "normalized": true,
      "byteOffset": 0,
      "bufferView": 5
    },
    {
      "type": "VEC2",
      "componentType": 5123,
      "count": 28,
      "normalized": true,
      "byteOffset": 0,
      "bufferView": 6
    }
  ],
  "bufferViews": [
    {
      "buffer": 1,
      "byteOffset": 0,
      "byteLength": 2820,
      "target": 34963,
      "extensions": {
        "EXT_meshopt_compression": {
          "buffer": 0,
          "byteOffset": 0,
          "byteLength": 493,
          "mode": "TRIANGLES",
          "byteStride": 2,
          "count": 1410
        }
      }
    },
    {
      "buffer": 1,
      "byteOffset": 2820,
      "byteLength": 2976,
      "target": 34962,
      "byteStride": 4,
      "extensions": {
        "EXT_meshopt_compression": {
          "buffer": 0,
          "byteOffset": 496,
          "byteLength": 510,
          "mode": "ATTRIBUTES",
          "filter": "OCTAHEDRAL",
          "byteStride": 4,
          "count": 744
        }
      }
    },
    {
      "buffer": 1,
      "byteOffset": 5796,
      "byteLength": 5952,
      "target": 34962,
      "byteStride": 8,
      "extensions": {
        "EXT_meshopt_compression": {
          "buffer": 0,
          "byteOffset": 1008,
          "byteLength": 4261,
          "mode": "ATTRIBUTES",
          "byteStride": 8,
          "count": 744
        }
      }
    },
    {
      "buffer": 1,
      "byteOffset": 11748,
      "byteLength": 112,
      "target": 34962,
      "byteStride": 4,
      "extensions": {
        "EXT_meshopt_compression": {
          "buffer": 0,
          "byteOffset": 5272,
          "byteLength": 37,
          "mode": "ATTRIBUTES",
          "filter": "OCTAHEDRAL",
          "byteStride": 4,
          "count": 28
        }
      }
    },
    {
      "buffer": 1,
      "byteOffset": 11860,
      "byteLength": 5952,
      "target": 34962,
      "byteStride": 8,
      "extensions": {
        "EXT_meshopt_compression": {
          "buffer": 0,
          "byteOffset": 5312,
          "byteLength": 3069,
          "mode": "ATTRIBUTES",
          "byteStride": 8,
          "count": 744
        }
      }
    },
    {
      "buffer": 1,
      "byteOffset": 17812,
      "byteLength": 224,
      "target": 34962,
      "byteStride": 8,
      "extensions": {
        "EXT_meshopt_compression": {
          "buffer": 0,
          "byteOffset": 8384,
          "byteLength": 143,
          "mode": "ATTRIBUTES",
          "byteStride": 8,
          "count": 28
        }
      }
    },
    {
      "buffer": 1,
      "byteOffset": 18036,
      "byteLength": 112,
      "target": 34962,
      "byteStride": 4,
      "extensions": {
        "EXT_meshopt_compression": {
          "buffer": 0,
          "byteOffset": 8528,
          "byteLength": 99,
          "mode": "ATTRIBUTES",
          "byteStride": 4,
          "count": 28
        }
      }
    }
  ],
  "samplers": [
    {
      "wrapS": 10497,
      "wrapT": 10497
    }
  ],
  "textures": [
    {
      "source": 0,
      "sampler": 0
    }
  ],
  "images": [
    {
      "mimeType": "image/webp",
      "uri": "T_WoodTrim_BaseColor.webp"
    }
  ],
  "buffers": [
    {
      "uri": "Door_1_Round.bin",
      "byteLength": 8628
    },
    {
      "byteLength": 18148,
      "extensions": {
        "EXT_meshopt_compression": {
          "fallback": true
        }
      }
    }
  ],
  "materials": [
    {
      "name": "MI_WoodTrim",
      "doubleSided": true,
      "pbrMetallicRoughness": {
        "baseColorTexture": {
          "index": 0
        }
      }
    },
    {
      "name": "MI_WindowGlass",
      "alphaMode": "BLEND",
      "doubleSided": true,
      "pbrMetallicRoughness": {}
    }
  ],
  "meshes": [
    {
      "name": "Cube.235",
      "primitives": [
        {
          "attributes": {
            "NORMAL": 1,
            "TEXCOORD_0": 2,
            "POSITION": 5
          },
          "mode": 4,
          "material": 0,
          "indices": 0
        },
        {
          "attributes": {
            "NORMAL": 4,
            "POSITION": 6,
            "TEXCOORD_0": 7
          },
          "mode": 4,
          "material": 1,
          "indices": 3
        }
      ]
    }
  ],
  "nodes": [
    {
      "name": "Door_1_Round",
      "translation": [
        0.5137433372437954,
        1.192207932472229,
        0.0027925800532102585
      ],
      "scale": [
        1.1591182947158813,
        1.1591182947158813,
        1.1591182947158813
      ],
      "mesh": 0
    }
  ],
  "scenes": [
    {
      "name": "Scene",
      "nodes": [
        0
      ]
    }
  ],
  "scene": 0,
  "extensionsUsed": [
    "EXT_meshopt_compression",
    "KHR_mesh_quantization"
  ],
  "extensionsRequired": [
    "EXT_meshopt_compression",
    "KHR_mesh_quantization"
  ]
}