{
  "asset": {
    "generator": "glTF-Transform v4.5.1",
    "version": "2.0"
  },
  "accessors": [
    {
      "type": "SCALAR",
      "componentType": 5123,
      "count": 4308,
      "normalized": false,
      "byteOffset": 0,
      "bufferView": 0
    },
    {
      "type": "VEC3",
      "componentType": 5120,
      "count": 1232,
      "normalized": true,
      "byteOffset": 0,
      "bufferView": 1
    },
    {
      "type": "VEC2",
      "componentType": 5126,
      "count": 1232,
      "normalized": false,
      "byteOffset": 0,
      "bufferView": 2
    },
    {
      "type": "SCALAR",
      "componentType": 5123,
      "count": 2268,
      "normalized": false,
      "byteOffset": 8616,
      "bufferView": 0
    },
    {
      "type": "VEC3",
      "componentType": 5120,
      "count": 1298,
      "normalized": true,
      "byteOffset": 0,
      "bufferView": 3
    },
    {
      "type": "VEC2",
      "componentType": 5126,
      "count": 1298,
      "normalized": false,
      "byteOffset": 0,
      "bufferView": 4
    },
    {
      "type": "VEC3",
      "componentType": 5122,
      "count": 1232,
      "max": [
        32767,
        22530,
        19830
      ],
      "min": [
        -32767,
        -21366,
        -19830
      ],
      "normalized": true,
      "byteOffset": 0,
      "bufferView": 5
    },
    {
      "type": "VEC3",
      "componentType": 5122,
      "count": 1298,
      "max": [
        31447,
        18174,
        19630
      ],
      "min": [
        -31447,
        -22530,
        -19670
      ],
      "normalized": true,
      "byteOffset": 0,
      "bufferView": 6
    }
  ],
  "bufferViews": [
    {
      "buffer": 1,
      "byteOffset": 0,
      "byteLength": 13152,
      "target": 34963,
      "extensions": {
        "EXT_meshopt_compression": {
          "buffer": 0,
          "byteOffset": 0,
          "byteLength": 2369,
          "mode": "TRIANGLES",
          "byteStride": 2,
          "count": 6576
        }
      }
    },
    {
      "buffer": 1,
      "byteOffset": 13152,
      "byteLength": 4928,
      "target": 34962,
      "byteStride": 4,
      "extensions": {
        "EXT_meshopt_compression": {
          "buffer": 0,
          "byteOffset": 2372,
          "byteLength": 1473,
          "mode": "ATTRIBUTES",
          "filter": "OCTAHEDRAL",
          "byteStride": 4,
          "count": 1232
        }
      }
    },
    {
      "buffer": 1,
      "byteOffset": 18080,
      "byteLength": 9856,
      "target": 34962,
      "byteStride": 8,
      "extensions": {
        "EXT_meshopt_compression": {
          "buffer": 0,
          "byteOffset": 3848,
          "byteLength": 6896,
          "mode": "ATTRIBUTES",
          "byteStride": 8,
          "count": 1232
        }
      }
    },
    {
      "buffer": 1,
      "byteOffset": 27936,
      "byteLength": 5192,
      "target": 34962,
      "byteStride": 4,
      "extensions": {
        "EXT_meshopt_compression": {
          "buffer": 0,
          "byteOffset": 10744,
          "byteLength": 1104,
          "mode": "ATTRIBUTES",
          "filter": "OCTAHEDRAL",
          "byteStride": 4,
          "count": 1298
        }
      }
    },
    {
      "buffer": 1,
      "byteOffset": 33128,
      "byteLength": 10384,
      "target": 34962,
      "byteStride": 8,
      "extensions": {
        "EXT_meshopt_compression": {
          "buffer": 0,
          "byteOffset": 11848,
          "byteLength": 7808,
          "mode": "ATTRIBUTES",
          "byteStride": 8,
          "count": 1298
        }
      }
    },
    {
      "buffer": 1,
      "byteOffset": 43512,
      "byteLength": 9856,
      "target": 34962,
      "byteStride": 8,
      "extensions": {
        "EXT_meshopt_compression": {
          "buffer": 0,
          "byteOffset": 19656,
          "byteLength": 6478,
          "mode": "ATTRIBUTES",
          "byteStride": 8,
          "count": 1232
        }
      }
    },
    {
      "buffer": 1,
      "byteOffset": 53368,
      "byteLength": 10384,
      "target": 34962,
      "byteStride": 8,
      "extensions": {
        "EXT_meshopt_compression": {
          "buffer": 0,
          "byteOffset": 26136,
          "byteLength": 6135,
          "mode": "ATTRIBUTES",
          "byteStride": 8,
          "count": 1298
        }
      }
    }
  ],
  "samplers": [
    {
      "wrapS": 10497,
      "wrapT": 10497
    }
  ],
  "textures": [
    {
      "source": 0,
      "sampler": 0
    },
    {
      "source": 1,
      "sampler": 0
    }
  ],
  "images": [
    {
      "mimeType": "image/webp",
      "uri": "T_RoundTiles_BaseColor.webp"
    },
    {
      "mimeType": "image/webp",
      "uri": "T_WoodTrim_BaseColor.webp"
    }
  ],
  "buffers": [
    {
      "uri": "Roof_RoundTiles_6x4.bin",
      "byteLength": 32272
    },
    {
      "byteLength": 63752,
      "extensions": {
        "EXT_meshopt_compression": {
          "fallback": true
        }
      }
    }
  ],
  "materials": [
    {
      "name": "MI_RoundTiles",
      "doubleSided": true,
      "pbrMetallicRoughness": {
        "baseColorTexture": {
          "index": 0
        }
      }
    },
    {
      "name": "MI_WoodTrim",
      "doubleSided": true,
      "pbrMetallicRoughness": {
        "baseColorTexture": {
          "index": 1
        }
      }
    }
  ],
  "meshes": [
    {
      "name": "Plane.028",
      "primitives": [
        {
          "attributes": {
            "NORMAL": 1,
            "TEXCOORD_0": 2,
            "POSITION": 6
          },
          "mode": 4,
          "material": 0,
          "indices": 0
        },
        {
          "attributes": {
            "NORMAL": 4,
            "TEXCOORD_0": 5,
            "POSITION": 7
          },
          "mode": 4,
          "material": 1,
          "indices": 3
        }
      ]
    }
  ],
  "nodes": [
    {
      "name": "Roof_RoundTiles_6x4",
      "translation": [
        0,
        2.053958922624588,
        2.3578916788101196
      ],
      "scale": [
        4.124891757965088,
        4.124891757965088,
        4.124891757965088
      ],
      "mesh": 0
    }
  ],
  "scenes": [
    {
      "name": "Scene",
      "nodes": [
        0
      ]
    }
  ],
  "scene": 0,
  "extensionsUsed": [
    "EXT_meshopt_compression",
    "KHR_mesh_quantization"
  ],
  "extensionsRequired": [
    "EXT_meshopt_compression",
    "KHR_mesh_quantization"
  ]
}