{
  "asset": {
    "generator": "glTF-Transform v4.5.1",
    "version": "2.0"
  },
  "accessors": [
    {
      "type": "SCALAR",
      "componentType": 5123,
      "count": 2160,
      "normalized": false,
      "byteOffset": 0,
      "bufferView": 0
    },
    {
      "type": "VEC3",
      "componentType": 5120,
      "count": 1176,
      "normalized": true,
      "byteOffset": 0,
      "bufferView": 1
    },
    {
      "type": "VEC2",
      "componentType": 5126,
      "count": 1176,
      "normalized": false,
      "byteOffset": 0,
      "bufferView": 2
    },
    {
      "type": "SCALAR",
      "componentType": 5123,
      "count": 3828,
      "normalized": false,
      "byteOffset": 4320,
      "bufferView": 0
    },
    {
      "type": "VEC3",
      "componentType": 5120,
      "count": 1204,
      "normalized": true,
      "byteOffset": 0,
      "bufferView": 3
    },
    {
      "type": "VEC2",
      "componentType": 5126,
      "count": 1204,
      "normalized": false,
      "byteOffset": 0,
      "bufferView": 4
    },
    {
      "type": "VEC3",
      "componentType": 5122,
      "count": 1176,
      "max": [
        30255,
        18758,
        31871
      ],
      "min": [
        -30255,
        -25039,
        -32767
      ],
      "normalized": true,
      "byteOffset": 0,
      "bufferView": 5
    },
    {
      "type": "VEC3",
      "componentType": 5122,
      "count": 1204,
      "max": [
        32483,
        25039,
        32767
      ],
      "min": [
        -32483,
        -23530,
        -32319
      ],
      "normalized": true,
      "byteOffset": 0,
      "bufferView": 6
    }
  ],
  "bufferViews": [
    {
      "buffer": 1,
      "byteOffset": 0,
      "byteLength": 11976,
      "target": 34963,
      "extensions": {
        "EXT_meshopt_compression": {
          "buffer": 0,
          "byteOffset": 0,
          "byteLength": 2112,
          "mode": "TRIANGLES",
          "byteStride": 2,
          "count": 5988
        }
      }
    },
    {
      "buffer": 1,
      "byteOffset": 11976,
      "byteLength": 4704,
      "target": 34962,
      "byteStride": 4,
      "extensions": {
        "EXT_meshopt_compression": {
          "buffer": 0,
          "byteOffset": 2112,
          "byteLength": 836,
          "mode": "ATTRIBUTES",
          "filter": "OCTAHEDRAL",
          "byteStride": 4,
          "count": 1176
        }
      }
    },
    {
      "buffer": 1,
      "byteOffset": 16680,
      "byteLength": 9408,
      "target": 34962,
      "byteStride": 8,
      "extensions": {
        "EXT_meshopt_compression": {
          "buffer": 0,
          "byteOffset": 2948,
          "byteLength": 7192,
          "mode": "ATTRIBUTES",
          "byteStride": 8,
          "count": 1176
        }
      }
    },
    {
      "buffer": 1,
      "byteOffset": 26088,
      "byteLength": 4816,
      "target": 34962,
      "byteStride": 4,
      "extensions": {
        "EXT_meshopt_compression": {
          "buffer": 0,
          "byteOffset": 10140,
          "byteLength": 1313,
          "mode": "ATTRIBUTES",
          "filter": "OCTAHEDRAL",
          "byteStride": 4,
          "count": 1204
        }
      }
    },
    {
      "buffer": 1,
      "byteOffset": 30904,
      "byteLength": 9632,
      "target": 34962,
      "byteStride": 8,
      "extensions": {
        "EXT_meshopt_compression": {
          "buffer": 0,
          "byteOffset": 11456,
          "byteLength": 6628,
          "mode": "ATTRIBUTES",
          "byteStride": 8,
          "count": 1204
        }
      }
    },
    {
      "buffer": 1,
      "byteOffset": 40536,
      "byteLength": 9408,
      "target": 34962,
      "byteStride": 8,
      "extensions": {
        "EXT_meshopt_compression": {
          "buffer": 0,
          "byteOffset": 18084,
          "byteLength": 5892,
          "mode": "ATTRIBUTES",
          "byteStride": 8,
          "count": 1176
        }
      }
    },
    {
      "buffer": 1,
      "byteOffset": 49944,
      "byteLength": 9632,
      "target": 34962,
      "byteStride": 8,
      "extensions": {
        "EXT_meshopt_compression": {
          "buffer": 0,
          "byteOffset": 23976,
          "byteLength": 6473,
          "mode": "ATTRIBUTES",
          "byteStride": 8,
          "count": 1204
        }
      }
    }
  ],
  "samplers": [
    {
      "wrapS": 10497,
      "wrapT": 10497
    }
  ],
  "textures": [
    {
      "source": 0,
      "sampler": 0
    },
    {
      "source": 1,
      "sampler": 0
    }
  ],
  "images": [
    {
      "mimeType": "image/webp",
      "uri": "T_WoodTrim_BaseColor.webp"
    },
    {
      "mimeType": "image/webp",
      "uri": "T_RoundTiles_BaseColor.webp"
    }
  ],
  "buffers": [
    {
      "uri": "Roof_RoundTiles_4x4.bin",
      "byteLength": 30452
    },
    {
      "byteLength": 59576,
      "extensions": {
        "EXT_meshopt_compression": {
          "fallback": true
        }
      }
    }
  ],
  "materials": [
    {
      "name": "MI_WoodTrim",
      "doubleSided": true,
      "pbrMetallicRoughness": {
        "baseColorTexture": {
          "index": 0
        }
      }
    },
    {
      "name": "MI_RoundTiles",
      "doubleSided": true,
      "pbrMetallicRoughness": {
        "baseColorTexture": {
          "index": 1
        }
      }
    }
  ],
  "meshes": [
    {
      "name": "Cube.110",
      "primitives": [
        {
          "attributes": {
            "NORMAL": 1,
            "TEXCOORD_0": 2,
            "POSITION": 6
          },
          "mode": 4,
          "material": 0,
          "indices": 0
        },
        {
          "attributes": {
            "NORMAL": 4,
            "TEXCOORD_0": 5,
            "POSITION": 7
          },
          "mode": 4,
          "material": 1,
          "indices": 3
        }
      ]
    }
  ],
  "nodes": [
    {
      "name": "Roof_RoundTiles_4x4",
      "translation": [
        0,
        1.6089778542518616,
        0.04082942008972168
      ],
      "scale": [
        2.7807374000549316,
        2.7807374000549316,
        2.7807374000549316
      ],
      "mesh": 0
    }
  ],
  "scenes": [
    {
      "name": "Scene",
      "nodes": [
        0
      ]
    }
  ],
  "scene": 0,
  "extensionsUsed": [
    "EXT_meshopt_compression",
    "KHR_mesh_quantization"
  ],
  "extensionsRequired": [
    "EXT_meshopt_compression",
    "KHR_mesh_quantization"
  ]
}