{
  "asset": {
    "generator": "glTF-Transform v4.5.1",
    "version": "2.0"
  },
  "accessors": [
    {
      "type": "SCALAR",
      "componentType": 5123,
      "count": 150,
      "normalized": false,
      "byteOffset": 0,
      "bufferView": 0
    },
    {
      "type": "VEC3",
      "componentType": 5120,
      "count": 64,
      "normalized": true,
      "byteOffset": 0,
      "bufferView": 1
    },
    {
      "type": "SCALAR",
      "componentType": 5123,
      "count": 48,
      "normalized": false,
      "byteOffset": 300,
      "bufferView": 0
    },
    {
      "type": "VEC3",
      "componentType": 5120,
      "count": 16,
      "normalized": true,
      "byteOffset": 0,
      "bufferView": 2
    },
    {
      "type": "VEC2",
      "componentType": 5126,
      "count": 16,
      "normalized": false,
      "byteOffset": 0,
      "bufferView": 3
    },
    {
      "type": "SCALAR",
      "componentType": 5123,
      "count": 66,
      "normalized": false,
      "byteOffset": 396,
      "bufferView": 0
    },
    {
      "type": "VEC3",
      "componentType": 5120,
      "count": 22,
      "normalized": true,
      "byteOffset": 0,
      "bufferView": 4
    },
    {
      "type": "VEC2",
      "componentType": 5126,
      "count": 22,
      "normalized": false,
      "byteOffset": 0,
      "bufferView": 5
    },
    {
      "type": "VEC3",
      "componentType": 5122,
      "count": 64,
      "max": [
        20986,
        32767,
        4264
      ],
      "min": [
        -20986,
        27619,
        -4264
      ],
      "normalized": true,
      "byteOffset": 0,
      "bufferView": 6
    },
    {
      "type": "VEC2",
      "componentType": 5123,
      "count": 64,
      "normalized": true,
      "byteOffset": 0,
      "bufferView": 7
    },
    {
      "type": "VEC3",
      "componentType": 5122,
      "count": 16,
      "max": [
        20986,
        30191,
        -1872
      ],
      "min": [
        -20986,
        -32767,
        -1872
      ],
      "normalized": true,
      "byteOffset": 0,
      "bufferView": 8
    },
    {
      "type": "VEC3",
      "componentType": 5122,
      "count": 22,
      "max": [
        20986,
        30191,
        2324
      ],
      "min": [
        -20986,
        -32767,
        2324
      ],
      "normalized": true,
      "byteOffset": 0,
      "bufferView": 9
    }
  ],
  "bufferViews": [
    {
      "buffer": 1,
      "byteOffset": 0,
      "byteLength": 528,
      "target": 34963,
      "extensions": {
        "EXT_meshopt_compression": {
          "buffer": 0,
          "byteOffset": 0,
          "byteLength": 109,
          "mode": "TRIANGLES",
          "byteStride": 2,
          "count": 264
        }
      }
    },
    {
      "buffer": 1,
      "byteOffset": 528,
      "byteLength": 256,
      "target": 34962,
      "byteStride": 4,
      "extensions": {
        "EXT_meshopt_compression": {
          "buffer": 0,
          "byteOffset": 112,
          "byteLength": 89,
          "mode": "ATTRIBUTES",
          "filter": "OCTAHEDRAL",
          "byteStride": 4,
          "count": 64
        }
      }
    },
    {
      "buffer": 1,
      "byteOffset": 784,
      "byteLength": 64,
      "target": 34962,
      "byteStride": 4,
      "extensions": {
        "EXT_meshopt_compression": {
          "buffer": 0,
          "byteOffset": 204,
          "byteLength": 37,
          "mode": "ATTRIBUTES",
          "filter": "OCTAHEDRAL",
          "byteStride": 4,
          "count": 16
        }
      }
    },
    {
      "buffer": 1,
      "byteOffset": 848,
      "byteLength": 128,
      "target": 34962,
      "byteStride": 8,
      "extensions": {
        "EXT_meshopt_compression": {
          "buffer": 0,
          "byteOffset": 244,
          "byteLength": 142,
          "mode": "ATTRIBUTES",
          "byteStride": 8,
          "count": 16
        }
      }
    },
    {
      "buffer": 1,
      "byteOffset": 976,
      "byteLength": 88,
      "target": 34962,
      "byteStride": 4,
      "extensions": {
        "EXT_meshopt_compression": {
          "buffer": 0,
          "byteOffset": 388,
          "byteLength": 37,
          "mode": "ATTRIBUTES",
          "filter": "OCTAHEDRAL",
          "byteStride": 4,
          "count": 22
        }
      }
    },
    {
      "buffer": 1,
      "byteOffset": 1064,
      "byteLength": 176,
      "target": 34962,
      "byteStride": 8,
      "extensions": {
        "EXT_meshopt_compression": {
          "buffer": 0,
          "byteOffset": 428,
          "byteLength": 204,
          "mode": "ATTRIBUTES",
          "byteStride": 8,
          "count": 22
        }
      }
    },
    {
      "buffer": 1,
      "byteOffset": 1240,
      "byteLength": 512,
      "target": 34962,
      "byteStride": 8,
      "extensions": {
        "EXT_meshopt_compression": {
          "buffer": 0,
          "byteOffset": 632,
          "byteLength": 301,
          "mode": "ATTRIBUTES",
          "byteStride": 8,
          "count": 64
        }
      }
    },
    {
      "buffer": 1,
      "byteOffset": 1752,
      "byteLength": 256,
      "target": 34962,
      "byteStride": 4,
      "extensions": {
        "EXT_meshopt_compression": {
          "buffer": 0,
          "byteOffset": 936,
          "byteLength": 223,
          "mode": "ATTRIBUTES",
          "byteStride": 4,
          "count": 64
        }
      }
    },
    {
      "buffer": 1,
      "byteOffset": 2008,
      "byteLength": 128,
      "target": 34962,
      "byteStride": 8,
      "extensions": {
        "EXT_meshopt_compression": {
          "buffer": 0,
          "byteOffset": 1160,
          "byteLength": 97,
          "mode": "ATTRIBUTES",
          "byteStride": 8,
          "count": 16
        }
      }
    },
    {
      "buffer": 1,
      "byteOffset": 2136,
      "byteLength": 176,
      "target": 34962,
      "byteStride": 8,
      "extensions": {
        "EXT_meshopt_compression": {
          "buffer": 0,
          "byteOffset": 1260,
          "byteLength": 126,
          "mode": "ATTRIBUTES",
          "byteStride": 8,
          "count": 22
        }
      }
    }
  ],
  "samplers": [
    {
      "wrapS": 10497,
      "wrapT": 10497
    }
  ],
  "textures": [
    {
      "source": 0,
      "sampler": 0
    },
    {
      "source": 1,
      "sampler": 0
    },
    {
      "source": 2,
      "sampler": 0
    }
  ],
  "images": [
    {
      "mimeType": "image/webp",
      "uri": "T_WoodTrim_BaseColor.webp"
    },
    {
      "mimeType": "image/webp",
      "uri": "T_Plaster_BaseColor.webp"
    },
    {
      "mimeType": "image/webp",
      "uri": "T_UnevenBrick_BaseColor.webp"
    }
  ],
  "buffers": [
    {
      "uri": "Wall_UnevenBrick_Window_Wide_Flat.bin",
      "byteLength": 1388
    },
    {
      "byteLength": 2312,
      "extensions": {
        "EXT_meshopt_compression": {
          "fallback": true
        }
      }
    }
  ],
  "materials": [
    {
      "name": "MI_WoodTrim",
      "doubleSided": true,
      "pbrMetallicRoughness": {
        "baseColorTexture": {
          "index": 0
        }
      }
    },
    {
      "name": "MI_Plaster",
      "doubleSided": true,
      "pbrMetallicRoughness": {
        "baseColorTexture": {
          "index": 1
        }
      }
    },
    {
      "name": "MI_UnevenBrick",
      "doubleSided": true,
      "pbrMetallicRoughness": {
        "baseColorTexture": {
          "index": 2
        }
      }
    }
  ],
  "meshes": [
    {
      "name": "Cube.202",
      "primitives": [
        {
          "attributes": {
            "NORMAL": 1,
            "POSITION": 8,
            "TEXCOORD_0": 9
          },
          "mode": 4,
          "material": 0,
          "indices": 0
        },
        {
          "attributes": {
            "NORMAL": 3,
            "TEXCOORD_0": 4,
            "POSITION": 10
          },
          "mode": 4,
          "material": 1,
          "indices": 2
        },
        {
          "attributes": {
            "NORMAL": 6,
            "TEXCOORD_0": 7,
            "POSITION": 11
          },
          "mode": 4,
          "material": 2,
          "indices": 5
        }
      ]
    }
  ],
  "nodes": [
    {
      "name": "Wall_UnevenBrick_Window_Wide_Flat",
      "translation": [
        -5.960464477539063e-8,
        1.5613443851470947,
        -0.11079446226358414
      ],
      "scale": [
        1.5613443851470947,
        1.5613443851470947,
        1.5613443851470947
      ],
      "mesh": 0
    }
  ],
  "scenes": [
    {
      "name": "Scene",
      "nodes": [
        0
      ]
    }
  ],
  "scene": 0,
  "extensionsUsed": [
    "EXT_meshopt_compression",
    "KHR_mesh_quantization"
  ],
  "extensionsRequired": [
    "EXT_meshopt_compression",
    "KHR_mesh_quantization"
  ]
}