{
  "asset": {
    "generator": "glTF-Transform v4.5.1",
    "version": "2.0"
  },
  "accessors": [
    {
      "type": "SCALAR",
      "componentType": 5123,
      "count": 204,
      "normalized": false,
      "byteOffset": 0,
      "bufferView": 0
    },
    {
      "type": "VEC3",
      "componentType": 5120,
      "count": 124,
      "normalized": true,
      "byteOffset": 0,
      "bufferView": 1
    },
    {
      "type": "SCALAR",
      "componentType": 5123,
      "count": 60,
      "normalized": false,
      "byteOffset": 408,
      "bufferView": 0
    },
    {
      "type": "VEC3",
      "componentType": 5120,
      "count": 24,
      "normalized": true,
      "byteOffset": 0,
      "bufferView": 2
    },
    {
      "type": "VEC2",
      "componentType": 5126,
      "count": 24,
      "normalized": false,
      "byteOffset": 0,
      "bufferView": 3
    },
    {
      "type": "SCALAR",
      "componentType": 5123,
      "count": 12,
      "normalized": false,
      "byteOffset": 528,
      "bufferView": 0
    },
    {
      "type": "VEC3",
      "componentType": 5120,
      "count": 8,
      "normalized": true,
      "byteOffset": 0,
      "bufferView": 4
    },
    {
      "type": "VEC3",
      "componentType": 5122,
      "count": 124,
      "max": [
        20986,
        32767,
        4264
      ],
      "min": [
        -20986,
        -19134,
        -4264
      ],
      "normalized": true,
      "byteOffset": 0,
      "bufferView": 5
    },
    {
      "type": "VEC2",
      "componentType": 5123,
      "count": 124,
      "normalized": true,
      "byteOffset": 0,
      "bufferView": 6
    },
    {
      "type": "VEC3",
      "componentType": 5122,
      "count": 24,
      "max": [
        20986,
        30191,
        2324
      ],
      "min": [
        -20986,
        -32767,
        -1872
      ],
      "normalized": true,
      "byteOffset": 0,
      "bufferView": 7
    },
    {
      "type": "VEC3",
      "componentType": 5122,
      "count": 8,
      "max": [
        20986,
        -14297,
        2324
      ],
      "min": [
        -20986,
        -32767,
        2324
      ],
      "normalized": true,
      "byteOffset": 0,
      "bufferView": 8
    },
    {
      "type": "VEC2",
      "componentType": 5123,
      "count": 8,
      "normalized": true,
      "byteOffset": 0,
      "bufferView": 9
    }
  ],
  "bufferViews": [
    {
      "buffer": 1,
      "byteOffset": 0,
      "byteLength": 552,
      "target": 34963,
      "extensions": {
        "EXT_meshopt_compression": {
          "buffer": 0,
          "byteOffset": 0,
          "byteLength": 111,
          "mode": "TRIANGLES",
          "byteStride": 2,
          "count": 276
        }
      }
    },
    {
      "buffer": 1,
      "byteOffset": 552,
      "byteLength": 496,
      "target": 34962,
      "byteStride": 4,
      "extensions": {
        "EXT_meshopt_compression": {
          "buffer": 0,
          "byteOffset": 112,
          "byteLength": 145,
          "mode": "ATTRIBUTES",
          "filter": "OCTAHEDRAL",
          "byteStride": 4,
          "count": 124
        }
      }
    },
    {
      "buffer": 1,
      "byteOffset": 1048,
      "byteLength": 96,
      "target": 34962,
      "byteStride": 4,
      "extensions": {
        "EXT_meshopt_compression": {
          "buffer": 0,
          "byteOffset": 260,
          "byteLength": 47,
          "mode": "ATTRIBUTES",
          "filter": "OCTAHEDRAL",
          "byteStride": 4,
          "count": 24
        }
      }
    },
    {
      "buffer": 1,
      "byteOffset": 1144,
      "byteLength": 192,
      "target": 34962,
      "byteStride": 8,
      "extensions": {
        "EXT_meshopt_compression": {
          "buffer": 0,
          "byteOffset": 308,
          "byteLength": 196,
          "mode": "ATTRIBUTES",
          "byteStride": 8,
          "count": 24
        }
      }
    },
    {
      "buffer": 1,
      "byteOffset": 1336,
      "byteLength": 32,
      "target": 34962,
      "byteStride": 4,
      "extensions": {
        "EXT_meshopt_compression": {
          "buffer": 0,
          "byteOffset": 504,
          "byteLength": 37,
          "mode": "ATTRIBUTES",
          "filter": "OCTAHEDRAL",
          "byteStride": 4,
          "count": 8
        }
      }
    },
    {
      "buffer": 1,
      "byteOffset": 1368,
      "byteLength": 992,
      "target": 34962,
      "byteStride": 8,
      "extensions": {
        "EXT_meshopt_compression": {
          "buffer": 0,
          "byteOffset": 544,
          "byteLength": 568,
          "mode": "ATTRIBUTES",
          "byteStride": 8,
          "count": 124
        }
      }
    },
    {
      "buffer": 1,
      "byteOffset": 2360,
      "byteLength": 496,
      "target": 34962,
      "byteStride": 4,
      "extensions": {
        "EXT_meshopt_compression": {
          "buffer": 0,
          "byteOffset": 1112,
          "byteLength": 402,
          "mode": "ATTRIBUTES",
          "byteStride": 4,
          "count": 124
        }
      }
    },
    {
      "buffer": 1,
      "byteOffset": 2856,
      "byteLength": 192,
      "target": 34962,
      "byteStride": 8,
      "extensions": {
        "EXT_meshopt_compression": {
          "buffer": 0,
          "byteOffset": 1516,
          "byteLength": 139,
          "mode": "ATTRIBUTES",
          "byteStride": 8,
          "count": 24
        }
      }
    },
    {
      "buffer": 1,
      "byteOffset": 3048,
      "byteLength": 64,
      "target": 34962,
      "byteStride": 8,
      "extensions": {
        "EXT_meshopt_compression": {
          "buffer": 0,
          "byteOffset": 1656,
          "byteLength": 73,
          "mode": "ATTRIBUTES",
          "byteStride": 8,
          "count": 8
        }
      }
    },
    {
      "buffer": 1,
      "byteOffset": 3112,
      "byteLength": 32,
      "target": 34962,
      "byteStride": 4,
      "extensions": {
        "EXT_meshopt_compression": {
          "buffer": 0,
          "byteOffset": 1732,
          "byteLength": 69,
          "mode": "ATTRIBUTES",
          "byteStride": 4,
          "count": 8
        }
      }
    }
  ],
  "samplers": [
    {
      "wrapS": 10497,
      "wrapT": 10497
    }
  ],
  "textures": [
    {
      "source": 0,
      "sampler": 0
    },
    {
      "source": 1,
      "sampler": 0
    },
    {
      "source": 2,
      "sampler": 0
    }
  ],
  "images": [
    {
      "mimeType": "image/webp",
      "uri": "T_WoodTrim_BaseColor.webp"
    },
    {
      "mimeType": "image/webp",
      "uri": "T_Plaster_BaseColor.webp"
    },
    {
      "mimeType": "image/webp",
      "uri": "T_RockTrim_BaseColor.webp"
    }
  ],
  "buffers": [
    {
      "uri": "Wall_Plaster_Door_Flat.bin",
      "byteLength": 1804
    },
    {
      "byteLength": 3144,
      "extensions": {
        "EXT_meshopt_compression": {
          "fallback": true
        }
      }
    }
  ],
  "materials": [
    {
      "name": "MI_WoodTrim",
      "doubleSided": true,
      "pbrMetallicRoughness": {
        "baseColorTexture": {
          "index": 0
        }
      }
    },
    {
      "name": "MI_Plaster",
      "doubleSided": true,
      "pbrMetallicRoughness": {
        "baseColorTexture": {
          "index": 1
        }
      }
    },
    {
      "name": "MI_RockTrim",
      "doubleSided": true,
      "pbrMetallicRoughness": {
        "baseColorTexture": {
          "index": 2
        }
      }
    }
  ],
  "meshes": [
    {
      "name": "Cube.221",
      "primitives": [
        {
          "attributes": {
            "NORMAL": 1,
            "POSITION": 7,
            "TEXCOORD_0": 8
          },
          "mode": 4,
          "material": 0,
          "indices": 0
        },
        {
          "attributes": {
            "NORMAL": 3,
            "TEXCOORD_0": 4,
            "POSITION": 9
          },
          "mode": 4,
          "material": 1,
          "indices": 2
        },
        {
          "attributes": {
            "NORMAL": 6,
            "POSITION": 10,
            "TEXCOORD_0": 11
          },
          "mode": 4,
          "material": 2,
          "indices": 5
        }
      ]
    }
  ],
  "nodes": [
    {
      "name": "Wall_Plaster_Door_Flat",
      "translation": [
        -5.960464477539063e-8,
        1.5613443851470947,
        -0.1107943058013916
      ],
      "scale": [
        1.5613443851470947,
        1.5613443851470947,
        1.5613443851470947
      ],
      "mesh": 0
    }
  ],
  "scenes": [
    {
      "name": "Scene",
      "nodes": [
        0
      ]
    }
  ],
  "scene": 0,
  "extensionsUsed": [
    "EXT_meshopt_compression",
    "KHR_mesh_quantization"
  ],
  "extensionsRequired": [
    "EXT_meshopt_compression",
    "KHR_mesh_quantization"
  ]
}