{
  "asset": {
    "generator": "glTF-Transform v4.5.1",
    "version": "2.0"
  },
  "accessors": [
    {
      "type": "SCALAR",
      "componentType": 5123,
      "count": 96,
      "normalized": false,
      "byteOffset": 0,
      "bufferView": 0
    },
    {
      "type": "VEC3",
      "componentType": 5120,
      "count": 32,
      "normalized": true,
      "byteOffset": 0,
      "bufferView": 1
    },
    {
      "type": "VEC2",
      "componentType": 5126,
      "count": 32,
      "normalized": false,
      "byteOffset": 0,
      "bufferView": 2
    },
    {
      "type": "SCALAR",
      "componentType": 5123,
      "count": 18,
      "normalized": false,
      "byteOffset": 192,
      "bufferView": 0
    },
    {
      "type": "VEC3",
      "componentType": 5120,
      "count": 8,
      "normalized": true,
      "byteOffset": 0,
      "bufferView": 3
    },
    {
      "type": "SCALAR",
      "componentType": 5123,
      "count": 174,
      "normalized": false,
      "byteOffset": 228,
      "bufferView": 0
    },
    {
      "type": "VEC3",
      "componentType": 5120,
      "count": 80,
      "normalized": true,
      "byteOffset": 0,
      "bufferView": 4
    },
    {
      "type": "VEC3",
      "componentType": 5122,
      "count": 32,
      "max": [
        20986,
        30191,
        2324
      ],
      "min": [
        -20986,
        -32767,
        -1872
      ],
      "normalized": true,
      "byteOffset": 0,
      "bufferView": 5
    },
    {
      "type": "VEC3",
      "componentType": 5122,
      "count": 8,
      "max": [
        20986,
        -14297,
        2324
      ],
      "min": [
        -20986,
        -32767,
        2324
      ],
      "normalized": true,
      "byteOffset": 0,
      "bufferView": 6
    },
    {
      "type": "VEC2",
      "componentType": 5123,
      "count": 8,
      "normalized": true,
      "byteOffset": 0,
      "bufferView": 7
    },
    {
      "type": "VEC3",
      "componentType": 5122,
      "count": 80,
      "max": [
        20986,
        32767,
        4264
      ],
      "min": [
        -20986,
        -19134,
        -4264
      ],
      "normalized": true,
      "byteOffset": 0,
      "bufferView": 8
    },
    {
      "type": "VEC2",
      "componentType": 5123,
      "count": 80,
      "normalized": true,
      "byteOffset": 0,
      "bufferView": 9
    }
  ],
  "bufferViews": [
    {
      "buffer": 1,
      "byteOffset": 0,
      "byteLength": 576,
      "target": 34963,
      "extensions": {
        "EXT_meshopt_compression": {
          "buffer": 0,
          "byteOffset": 0,
          "byteLength": 153,
          "mode": "TRIANGLES",
          "byteStride": 2,
          "count": 288
        }
      }
    },
    {
      "buffer": 1,
      "byteOffset": 576,
      "byteLength": 128,
      "target": 34962,
      "byteStride": 4,
      "extensions": {
        "EXT_meshopt_compression": {
          "buffer": 0,
          "byteOffset": 156,
          "byteLength": 47,
          "mode": "ATTRIBUTES",
          "filter": "OCTAHEDRAL",
          "byteStride": 4,
          "count": 32
        }
      }
    },
    {
      "buffer": 1,
      "byteOffset": 704,
      "byteLength": 256,
      "target": 34962,
      "byteStride": 8,
      "extensions": {
        "EXT_meshopt_compression": {
          "buffer": 0,
          "byteOffset": 204,
          "byteLength": 250,
          "mode": "ATTRIBUTES",
          "byteStride": 8,
          "count": 32
        }
      }
    },
    {
      "buffer": 1,
      "byteOffset": 960,
      "byteLength": 32,
      "target": 34962,
      "byteStride": 4,
      "extensions": {
        "EXT_meshopt_compression": {
          "buffer": 0,
          "byteOffset": 456,
          "byteLength": 37,
          "mode": "ATTRIBUTES",
          "filter": "OCTAHEDRAL",
          "byteStride": 4,
          "count": 8
        }
      }
    },
    {
      "buffer": 1,
      "byteOffset": 992,
      "byteLength": 320,
      "target": 34962,
      "byteStride": 4,
      "extensions": {
        "EXT_meshopt_compression": {
          "buffer": 0,
          "byteOffset": 496,
          "byteLength": 106,
          "mode": "ATTRIBUTES",
          "filter": "OCTAHEDRAL",
          "byteStride": 4,
          "count": 80
        }
      }
    },
    {
      "buffer": 1,
      "byteOffset": 1312,
      "byteLength": 256,
      "target": 34962,
      "byteStride": 8,
      "extensions": {
        "EXT_meshopt_compression": {
          "buffer": 0,
          "byteOffset": 604,
          "byteLength": 169,
          "mode": "ATTRIBUTES",
          "byteStride": 8,
          "count": 32
        }
      }
    },
    {
      "buffer": 1,
      "byteOffset": 1568,
      "byteLength": 64,
      "target": 34962,
      "byteStride": 8,
      "extensions": {
        "EXT_meshopt_compression": {
          "buffer": 0,
          "byteOffset": 776,
          "byteLength": 75,
          "mode": "ATTRIBUTES",
          "byteStride": 8,
          "count": 8
        }
      }
    },
    {
      "buffer": 1,
      "byteOffset": 1632,
      "byteLength": 32,
      "target": 34962,
      "byteStride": 4,
      "extensions": {
        "EXT_meshopt_compression": {
          "buffer": 0,
          "byteOffset": 852,
          "byteLength": 70,
          "mode": "ATTRIBUTES",
          "byteStride": 4,
          "count": 8
        }
      }
    },
    {
      "buffer": 1,
      "byteOffset": 1664,
      "byteLength": 640,
      "target": 34962,
      "byteStride": 8,
      "extensions": {
        "EXT_meshopt_compression": {
          "buffer": 0,
          "byteOffset": 924,
          "byteLength": 373,
          "mode": "ATTRIBUTES",
          "byteStride": 8,
          "count": 80
        }
      }
    },
    {
      "buffer": 1,
      "byteOffset": 2304,
      "byteLength": 320,
      "target": 34962,
      "byteStride": 4,
      "extensions": {
        "EXT_meshopt_compression": {
          "buffer": 0,
          "byteOffset": 1300,
          "byteLength": 259,
          "mode": "ATTRIBUTES",
          "byteStride": 4,
          "count": 80
        }
      }
    }
  ],
  "samplers": [
    {
      "wrapS": 10497,
      "wrapT": 10497
    }
  ],
  "textures": [
    {
      "source": 0,
      "sampler": 0
    },
    {
      "source": 1,
      "sampler": 0
    },
    {
      "source": 2,
      "sampler": 0
    }
  ],
  "images": [
    {
      "mimeType": "image/webp",
      "uri": "T_Plaster_BaseColor.webp"
    },
    {
      "mimeType": "image/webp",
      "uri": "T_Brick_BaseColor.webp"
    },
    {
      "mimeType": "image/webp",
      "uri": "T_WoodTrim_BaseColor.webp"
    }
  ],
  "buffers": [
    {
      "uri": "Wall_Plaster_Window_Wide_Flat.bin",
      "byteLength": 1560
    },
    {
      "byteLength": 2624,
      "extensions": {
        "EXT_meshopt_compression": {
          "fallback": true
        }
      }
    }
  ],
  "materials": [
    {
      "name": "MI_Plaster",
      "doubleSided": true,
      "pbrMetallicRoughness": {
        "baseColorTexture": {
          "index": 0
        }
      }
    },
    {
      "name": "MI_Brick",
      "doubleSided": true,
      "pbrMetallicRoughness": {
        "baseColorTexture": {
          "index": 1
        }
      }
    },
    {
      "name": "MI_WoodTrim",
      "doubleSided": true,
      "pbrMetallicRoughness": {
        "baseColorTexture": {
          "index": 2
        }
      }
    }
  ],
  "meshes": [
    {
      "name": "Plane.030",
      "primitives": [
        {
          "attributes": {
            "NORMAL": 1,
            "TEXCOORD_0": 2,
            "POSITION": 7
          },
          "mode": 4,
          "material": 0,
          "indices": 0
        },
        {
          "attributes": {
            "NORMAL": 4,
            "POSITION": 8,
            "TEXCOORD_0": 9
          },
          "mode": 4,
          "material": 1,
          "indices": 3
        },
        {
          "attributes": {
            "NORMAL": 6,
            "POSITION": 10,
            "TEXCOORD_0": 11
          },
          "mode": 4,
          "material": 2,
          "indices": 5
        }
      ]
    }
  ],
  "nodes": [
    {
      "name": "Wall_Plaster_Window_Wide_Flat",
      "translation": [
        -5.960464477539063e-8,
        1.5613443851470947,
        -0.1107943058013916
      ],
      "scale": [
        1.5613443851470947,
        1.5613443851470947,
        1.5613443851470947
      ],
      "mesh": 0
    }
  ],
  "scenes": [
    {
      "name": "Scene",
      "nodes": [
        0
      ]
    }
  ],
  "scene": 0,
  "extensionsUsed": [
    "EXT_meshopt_compression",
    "KHR_mesh_quantization"
  ],
  "extensionsRequired": [
    "EXT_meshopt_compression",
    "KHR_mesh_quantization"
  ]
}