{
  "asset": {
    "generator": "glTF-Transform v4.5.1",
    "version": "2.0"
  },
  "accessors": [
    {
      "type": "SCALAR",
      "componentType": 5123,
      "count": 408,
      "normalized": false,
      "byteOffset": 0,
      "bufferView": 0
    },
    {
      "type": "VEC3",
      "componentType": 5120,
      "count": 272,
      "normalized": true,
      "byteOffset": 0,
      "bufferView": 1
    },
    {
      "type": "VEC2",
      "componentType": 5126,
      "count": 272,
      "normalized": false,
      "byteOffset": 0,
      "bufferView": 2
    },
    {
      "type": "SCALAR",
      "componentType": 5123,
      "count": 72,
      "normalized": false,
      "byteOffset": 816,
      "bufferView": 0
    },
    {
      "type": "VEC3",
      "componentType": 5120,
      "count": 45,
      "normalized": true,
      "byteOffset": 0,
      "bufferView": 3
    },
    {
      "type": "VEC3",
      "componentType": 5122,
      "count": 272,
      "max": [
        32767,
        32195,
        13925
      ],
      "min": [
        -32767,
        -32195,
        -13925
      ],
      "normalized": true,
      "byteOffset": 0,
      "bufferView": 4
    },
    {
      "type": "VEC3",
      "componentType": 5122,
      "count": 45,
      "max": [
        20598,
        25311,
        -2904
      ],
      "min": [
        -20598,
        -25963,
        -2904
      ],
      "normalized": true,
      "byteOffset": 0,
      "bufferView": 5
    },
    {
      "type": "VEC2",
      "componentType": 5123,
      "count": 45,
      "normalized": true,
      "byteOffset": 0,
      "bufferView": 6
    }
  ],
  "bufferViews": [
    {
      "buffer": 1,
      "byteOffset": 0,
      "byteLength": 960,
      "target": 34963,
      "extensions": {
        "EXT_meshopt_compression": {
          "buffer": 0,
          "byteOffset": 0,
          "byteLength": 181,
          "mode": "TRIANGLES",
          "byteStride": 2,
          "count": 480
        }
      }
    },
    {
      "buffer": 1,
      "byteOffset": 960,
      "byteLength": 1088,
      "target": 34962,
      "byteStride": 4,
      "extensions": {
        "EXT_meshopt_compression": {
          "buffer": 0,
          "byteOffset": 184,
          "byteLength": 274,
          "mode": "ATTRIBUTES",
          "filter": "OCTAHEDRAL",
          "byteStride": 4,
          "count": 272
        }
      }
    },
    {
      "buffer": 1,
      "byteOffset": 2048,
      "byteLength": 2176,
      "target": 34962,
      "byteStride": 8,
      "extensions": {
        "EXT_meshopt_compression": {
          "buffer": 0,
          "byteOffset": 460,
          "byteLength": 1577,
          "mode": "ATTRIBUTES",
          "byteStride": 8,
          "count": 272
        }
      }
    },
    {
      "buffer": 1,
      "byteOffset": 4224,
      "byteLength": 180,
      "target": 34962,
      "byteStride": 4,
      "extensions": {
        "EXT_meshopt_compression": {
          "buffer": 0,
          "byteOffset": 2040,
          "byteLength": 37,
          "mode": "ATTRIBUTES",
          "filter": "OCTAHEDRAL",
          "byteStride": 4,
          "count": 45
        }
      }
    },
    {
      "buffer": 1,
      "byteOffset": 4404,
      "byteLength": 2176,
      "target": 34962,
      "byteStride": 8,
      "extensions": {
        "EXT_meshopt_compression": {
          "buffer": 0,
          "byteOffset": 2080,
          "byteLength": 1175,
          "mode": "ATTRIBUTES",
          "byteStride": 8,
          "count": 272
        }
      }
    },
    {
      "buffer": 1,
      "byteOffset": 6580,
      "byteLength": 360,
      "target": 34962,
      "byteStride": 8,
      "extensions": {
        "EXT_meshopt_compression": {
          "buffer": 0,
          "byteOffset": 3256,
          "byteLength": 197,
          "mode": "ATTRIBUTES",
          "byteStride": 8,
          "count": 45
        }
      }
    },
    {
      "buffer": 1,
      "byteOffset": 6940,
      "byteLength": 180,
      "target": 34962,
      "byteStride": 4,
      "extensions": {
        "EXT_meshopt_compression": {
          "buffer": 0,
          "byteOffset": 3456,
          "byteLength": 113,
          "mode": "ATTRIBUTES",
          "byteStride": 4,
          "count": 45
        }
      }
    }
  ],
  "samplers": [
    {
      "wrapS": 10497,
      "wrapT": 10497
    }
  ],
  "textures": [
    {
      "source": 0,
      "sampler": 0
    }
  ],
  "images": [
    {
      "mimeType": "image/webp",
      "uri": "T_WoodTrim_BaseColor.webp"
    }
  ],
  "buffers": [
    {
      "uri": "Window_Wide_Flat1.bin",
      "byteLength": 3572
    },
    {
      "byteLength": 7120,
      "extensions": {
        "EXT_meshopt_compression": {
          "fallback": true
        }
      }
    }
  ],
  "materials": [
    {
      "name": "MI_WoodTrim",
      "doubleSided": true,
      "pbrMetallicRoughness": {
        "baseColorTexture": {
          "index": 0
        }
      }
    },
    {
      "name": "MI_WindowGlass",
      "alphaMode": "BLEND",
      "doubleSided": true,
      "pbrMetallicRoughness": {}
    }
  ],
  "meshes": [
    {
      "name": "Cube.153",
      "primitives": [
        {
          "attributes": {
            "NORMAL": 1,
            "TEXCOORD_0": 2,
            "POSITION": 5
          },
          "mode": 4,
          "material": 0,
          "indices": 0
        },
        {
          "attributes": {
            "NORMAL": 4,
            "POSITION": 6,
            "TEXCOORD_0": 7
          },
          "mode": 4,
          "material": 1,
          "indices": 3
        }
      ]
    }
  ],
  "nodes": [
    {
      "name": "Window_Wide_Flat1",
      "translation": [
        -9.5367431640625e-7,
        1.7342334687709808,
        0.07513831555843353
      ],
      "scale": [
        0.8041181564331055,
        0.8041181564331055,
        0.8041181564331055
      ],
      "mesh": 0
    }
  ],
  "scenes": [
    {
      "name": "Scene",
      "nodes": [
        0
      ]
    }
  ],
  "scene": 0,
  "extensionsUsed": [
    "EXT_meshopt_compression",
    "KHR_mesh_quantization"
  ],
  "extensionsRequired": [
    "EXT_meshopt_compression",
    "KHR_mesh_quantization"
  ]
}